<?xml version="1.0" encoding="UTF-8"?>
<svg id="_레이어_1" xmlns="http://www.w3.org/2000/svg" xmlns:svg="http://www.w3.org/2000/svg" version="1.1" viewBox="0 0 1024 1024">
  <!-- Generator: Adobe Illustrator 29.1.0, SVG Export Plug-In . SVG Version: 2.1.0 Build 142)  -->
  <defs>
    <style>
      .st0 {
        fill: #fc6d1d;
      }

      .st1 {
        fill: #4d2f15;
      }

      .st2 {
        fill: #584d3b;
      }

      .st3 {
        fill: #809311;
      }

      .st4 {
        fill: #50412f;
      }

      .st5 {
        fill: #7c8c11;
      }

      .st6 {
        fill: #fff;
      }

      .st7 {
        fill: #fd6f1d;
      }

      .st8 {
        fill: #e85f16;
      }

      .st9 {
        fill: #543216;
      }

      .st10 {
        fill: #6baea4;
      }

      .st11 {
        fill: #fede54;
      }

      .st12 {
        fill: #62a39c;
      }

      .st13 {
        fill: #ba6420;
      }

      .st14 {
        fill: #514330;
      }
    </style>
  </defs>
  <path class="st11" d="M389.3,471.6c7.4-5.5,12.5-6.1,19.1-6.6,5.6,1,16,7.4,17.6,10s3.6,9.5,6.3,9.7c9.6.7,15.2.5,24-.5s-.5,2,2.8-2.8c7.2-11.4,27.1-19.8,42-9.2,1,1.1,4.9,4.3,6.1,5.1,1.1-.8,57.1,7.6,60.7,7.6-.2-.3,53.7-.9,55.4.6-3.2-4.5,33.3-85.1,35.9-91.7,1.1.8-3.5-40.1-2.3-41.7,0-3.1,0-5.8-.5-8.5h-.2c.2-.2.5-.4.7-.6,0-1.9-.1-3.3-.3-5.1.1,0,.3.2.3.3-.5-15.3.7-30.5,0-45.5-.9-16.9,14.2-21.3,27.9-20.1-1.1-2.8-2.8-3.9-4.2-5.3l-1,.3c-48.8-43.7-98.7-85.8-148-128.9-2.2-1.9-4.2-2.7-6.9-.2-14.1,12.6-118.4,104.7-155.3,137.2-3.8,2.3-2.8,5.5,1.9,4.2,15.4-2,28.2,12.5,25.8,27.7-.2,0-.4-.3-.4-.3.2,4.2.2,7.8.5,12,.9.3-.2,20.1-.2,33.8s-19.9,98.6-18.5,128.5c0,0,2.5-2.9,7.1-7.5s3.6-2.5,3.6-2.5Z"/>
  <path class="st14" d="M365.6,437.7c0,13.9.8,28.1-.2,42.1-.1,3.1-1.9,5.6-5.2,5.7-28.3,1.3-57.8,1-86.4.3-2.3-.2-3.4-1-3.7-2.9-1.1-9,3.4-39,.6-43.7-.6-1-1.7-.5-3.5.9-12.1,9.9-31,13.4-44.4,4.1-8-6.2-11.3-22.6-11.5-32.4,0-7.2,1.6-14.6,8.6-17.1,4.8-1.5,12.4-1.4,17-2.8,3.5-.9,5.2-2.3,7.6-4.8,2.9-3,6.7-7.3,10.2-10.1,10.7-8.1,26.4-9.8,38.4-3.7,5.5,2.6,8.7,7.8,12.4,12.4,2.2,2.6,6.3,7,6.5,9.9,0,2.3-2.1.8-4.2-1.4-4.9-4.9-11.8-17.2-19.4-17.8-2,.1-3.3,2.1-4.1,3.8-12.7,27.4-7.3,91.3,31,89.1,13.1-3.2,19.5-16.7,16.1-29.9-.5-3.3,2.1-4.7,4.9-5.4,10.2-2.8,10.4-15.5,7.8-23.9-3-11.4-12.2-19.3-21.2-26.4-2.7-1.9-4.5-5.1.5-4.4,3.7.7,7.7,3.1,11.5,4.7,25.9,8.4,30.2,28.4,30.5,53.5v.2Z"/>
  <path id="svg_3" class="st4" d="M729.2,410.7c4.6-3.7,9.4-7.6,12.8-12.5,6.8-7.9,12.1-16.9,12.1-27.8-.2-7.2.7-13.7-2.7-20.5-2.4-4.4-4.1-9.3-4.7-14.2-.4-3.9-2.8-16.8.6-18.9,3.3-1.8,10.3,6.3,12.8,8.3,1.9,1.8,3.6,4.1,6,5,5,1.5,10-1.2,15-2,6.2-1,11.9-5.7,16-9.8,1.7-1.7,4.2-2.8,6.6-2.2,9.8,2.8,10.1,18.8,8.4,27.6-.9,4.4-2.7,7.4-5,10.7-2.8,4.2-5.4,8.6-8.3,12.7-2.3,3.5-3.5,7.6-5.2,11.4-1.6,3.5-2.7,7.2-3.5,10.9-4.5,23.9-9.5,47.9-10.8,72.2-.5,7.9-8.5,4-16.3,7.2-3.2,1.3-6,3.4-8.1,6.1-1.7,2.2-3.2,4.5-4.4,7.3-1,2.8-3.1,5.1-6.3,5-13.6,0-27.5-.8-41.3-.8-4.1,0-9-.2-12.3-2.6-8.3-6.6-3.8-20.8-.8-29.2,8.2-18.2,23.9-31.5,39.3-43.7h.1Z"/>
  <path id="svg_11" class="st0" d="M439.7,173c-1.7,7.1-5.1,13.9-9.4,19.8-18.3,26.7-54.4,16.8-82.4,18.7-1.4,0-.7,0-1.3-.2-5.4-3.5,3.3-5.5,6.2-6.6,1.4-.5,2.8-1.1,4.1-1.7,14.6-6.8,25.6-26,33.6-37.9,3.5-5.9,6.6-9.8,10.2-15.6,6.7-11,8.7-19.9,13.3-29.1,1.6-3.2,3.6-6.3,6.4-8.6,5.6-4.8,14.1-5.7,20.6-2.7,8.3,3,5.2,11.9,8.7,18.1,1.4,1.6,4.6,2.4,5.1,4.6.1.7-.5,1.4-1.7,2-2,1.1-4.7,2.3-6.4,4.1-4.8,4.9-5.5,9.2-5.7,16.6-.3,5.7-.4,12.5-1.2,18v.4Z"/>
  <path class="st2" d="M333,452.9c-2.7,16.5-19.6,24.6-34.7,15.2-23.8-14.6-24.2-57.1-19.6-81.6,2.3-9.6,7-16.9,16.5-8.2,4.1,3.4,8.8,8.2,13.1,12.6,3.8,4,7.4,7.8,10.7,12.1,9.6,12.7,16.6,34,14.1,49.6v.4Z"/>
  <path class="st5" d="M701.5,191c-4.8,3.9-12.6,1.6-17.9-.7-3.6-1.1-6.9-7-10.6-3.8-12.6,16.2-24.6-1.3-23.4,24.2-.2,1.3-1.6,1.8-2.8,1.5-3.5-.4-8.5-4.7-6.3-8.1,4,.2,7.8-1.3,8.1-5.9.1-1.3,1.5-2.6,0-3.5-4-2.7-9.3-4.6-12.3-8.6-1.1-1.3-1.8.3-3.3,1-2.5,1.2-4.9-.4-3.6,3.4,1.9,10.3-7.9,5.2-10.1-2.2-1.3-4.5,6-3.3,8.3-2,2,.3,5.6-1.6,7.4-2.4-1.2-6.2,0-12.9,1.1-19.1,2-3.5,2.3-7.7-.1-11.1-7.2-7.1-6.4-33.3,7.1-18.7,5.7,5.4,1.1,24.8,13.5,16.3,2.8-.8,2.9-2.5.7-4.2-5.5-6-4.1-23.6,5.7-22.8,4.2.5,5.6,5,5.9,8.8.2,1.5.3,3.8,1.2,2.7,2.6-5,6.7-15.3,13.8-10.2,4.6,4.8-.9,16.6-4.6,21.3-5,9.8,23.8-7.6,19.1,7.8-2.8,13-20.7,4.4-19.3,12.2,1.5,2.9-.8,8.5,3.2,9.4,8.2.1,25.1,3.2,19.2,14.9Z"/>
  <path class="st6" d="M584.6,277.6c-1.9,21.9-20.3,40.7-41.5,46.3-4.8.9-7.9,3.9-6.5,8.7,1.9,4.3,10.7,2.7,14.7,4.4,4.5,1.3,3.4,7.1-.4,8.5-3.8,1.8-9.3.2-12.6,3.2-1.4,1.5-1.4,4.1.1,5.7,2.1,2,5.3,1.9,8,2,2.9,0,6.4-.3,9,.5,3.1.8,3.8,4.5,2.1,6.9-4.1,6.4-20.8-1.2-21.4,7.8-.9,9.8,17.5,4.9,22.1,9.8,9.1,14.4-40.7,7.7-47.6,8.3-4.2.1-9.6-.6-9-6,1-7.1,10.2-6.7,16.5-6.7,3.4.2,7.6-2.4,6-6.2-2.5-4.3-11.8-1.2-16.2-3.1-2.3-.7-4-2.5-3.8-4.7.7-4.5,7.4-5.4,11.4-5.9,3.1-.5,6.8.4,8.8-2.2,1-1.4,1-3.4.2-4.8-2.2-4.7-12.4-1.2-16.9-5-1.4-1.2-2-3.3-1.4-5,3.1-7.2,14-1.5,18.9-5.5,2-2,2-6.1,1-8.1-1.1-2-3.5-2.3-7.1-2.9-3-.5-6.5-1.5-9.5-2.7-55.2-25.1-38.1-107.4,22.9-106.2,14.5.4,31.6,6.5,40.5,19.4,4.3,6.6,8.8,13.8,10.8,21.4,1.4,7.1.7,14.8.9,21.8v.2Z"/>
  <path class="st0" d="M563.6,291.5c-3.1,2.4-8.9,8-12.4,6.7-1.7-1-1.1-5.1-2.3-8.1-2.2-5.1-6.7-9.2-10.9-12.8-5.6-4.1-13.7-6-20.1-2.7-6.4,3.8-12.7,10.6-11.7,18.5,1.9,11,23.1,8.7,31.5,8.5,2.4,0,4.6-.7,6.8,0,2.1.9-.5,2.4-1.7,2.7-5,.8-10.8.4-16,.9-7,.3-15.3.2-20.5-4.2-2.5-2-4.9-4.2-7.1-6.5-3-3.1-4.8-7.2-6.8-11.1-2.2-4.2-4-8.5-4-13.3-.3-6.1,1.9-12.5,7.5-14.9,5-1.8,9.8,2.8,12.5,6.3,3.4,4.9,10,1.3,8-4.1-2-5.2-3.8-11.7-.4-16.5,1.7-2.6,4.7-4.4,7.8-4.5,1.8,0,3.6.4,5.2,1.2,2.5,1.2,4.3,3.8,6.8,4.4,2.6.6,5.5-1.2,8.2-1.4,5.9-.9,9.5,6.6,7.6,12.1-.8,3-2.7,5.4-4.6,7.8-1.9,2.1-4.8,6.2-1.5,8.2,4.2,2.1,6.6-3.2,7.8-6.6,11.4-23.2,27.9,17.4,10.5,29.5h-.1Z"/>
  <path id="svg_16" class="st12" d="M507.2,477.4c-.6-8-.8-10.2-9.2-14.2-3.6-1.7-5.9-2.9-8.3-7.1s-2.8-8.4-5.6-7.5c-2.8.8-3.3,1.5-5,1.6-1.8.1-3.1-.5-2-4.1s-1.3-1.2-.2-5.5c.6-2.1,2.4-2.8,3.7-2.6,1.3.2,2.5.1,2.9-3.3.7-6.9,3.6-14.4,3-23.2s-2.5-8.7.5-10.4c3.2-1.8,6.8,1.5,9.3,5.5,2.5,4.1,7.6,5.2,13.6,5.7,6,.4,5.3-.3,7.9.5,2.8.8,4.5-.3,5.5-3.3.3-.6.5-.9.9-1.4,1.6-1.3,2.7-2.6,3.8-3.8,1.4-1.4,4.8-5.7,7-4.9,2.2.8,1.8,6,1.9,8.1,0,1.5.5,4.9-.6,6.5-.5.8,3.1,15.1,3,18.4,0,4.7,14,1.7,7.5,6.1-3.3,2.2,3.8,7.3,1,8.8-2.7,1.5-7.9-.9-9.5.1-3.3,2,3.6,4.2,10,10.9s13.8,14.5,16.2,20.3c4.8,11.5.6,1.9,1,2.5.5,2,4.8,5-.8,5s-54.8-.2-54.8-.2c0,0,2.1-5.1-2.7-8.5Z"/>
  <path id="svg_911" class="st5" d="M656.2,485.3c-9.9.5-19.6.6-29.8.6-1.5,0-3-.6-3.5-2.1-.6-1.3-.6-2.8-.6-4.2.2-3.5.5-7.1.9-10.6,1.2-10.9,3.2-22.3.5-33.1-5.9-17.3-46.6-7.8-56.1-40.4-.9-2.8-1.8-6.7-.8-9.1,2.2-5.9,11.9-6.4,18.5-5.4,2.8.6,5.6.8,8.4,1.2,2.3.4,4.3.9,6,.2,1.6-.7,3.7-2.4,5.1-3.9,1.3-1.4,1.9-3.3,3-4.9.8-1.1,1.9-1.9,2.9-2.7,1.6-1.3,2.5-3.1,4-4.5.9-.8,1.9-1.4,2.8-2.2,2.2-1.9,4.3-3.9,7.2-4.5,5.2-1.4,10.5-2.6,15.3-1.1,7.6,3.2,15.1,11.5,16.5,19.8.1,5.2.6,102.9-.1,106.9h-.3Z"/>
  <path class="st10" d="M754,548.6l-.3-.3c-1.3-12.6-10-23.2-19.5-31.2-17.1-10.5-32-14.5-51.6-5.9v.2c-2.6,1-4,1.8-5.9,3.7v.2c-1.4,2.2-4,2.5-4.3,0-1.4-6.7-4.7-10.1-12.8-8.9-4.4,0-9.8,3.5-10.7,8.4-.3,37.1-.2,73.8-.2,110.5-1.4,13.7,20.1,17.3,25.4,6.2,5.5-5.9,2.4-23.2,3.4-31.4,1.7,3.7,9.3,5.8,13.7,6.3,38.1,7.7,67.7-19.3,62.7-57.6h0v-.2ZM718.6,575h0c-42.9,34.2-67.1-50.3-14.2-43.4,19.3,1.4,31.2,30.2,14.1,43.4h.1Z"/>
  <path class="st10" d="M635.4,545.8c-.6-4.1-3.1-8.7-6.1-13.7-2.4-3.7-4.5-6.7-7.8-9.1-.4-.3-.5-.5-.9-.7-16.4-15.9-42.5-19.4-62.7-9.1-10.1,5.1-18.6,13.6-23.2,23.9-9.3,20.8-4.7,48.2,13,62.9,20.8,17.5,54.9,16.2,73.7-3.4,13.9-12.9,15.5-28,14-50.7v-.2h0ZM597.6,581c-15.5,7.8-34,3-41.1-13-13.4-29.2,31.5-53,49.5-22.3,7.1,12.2,5.3,27.5-8.2,35.2h-.2,0Z"/>
  <path class="st14" d="M895,565.7c-4.4-21.2-13-42.3-29.1-57-16.6-10.7-29.9,2.9-41.4,13.7-44.3,40.2-26.8,125.4,41,77.1,1.9-1.4,4.9-4,5.5-.3.5,12.8,18.1,19.5,24.5,6.9,6.1-12.1.5-28.6-.5-40.5h0ZM872.8,568.1c-1.4,17.2-15,21.7-29.2,28.5-49.9,13.4-4.2-105,24.6-53,3.3,6,5.3,17.7,4.6,24.5h0Z"/>
  <path class="st11" d="M377.1,577.7c-.2-.8-.8-1.7-1.3-2.1-5.5-5.4-15.1-2.8-20.2,2.1-2.1,2.1-3.9,3.9-6.4,5.6-5.6,5.3-13.2,7.6-20.2,4.2-7.7-3.4-11.5-11.6-11-19.8,0-3.3-.3-6.9,3.6-6.6,12.1.9,26.5,4.2,37.6-2.6,1.1-.7,2.2-1.6,3-2.4,2.5-2.5,5.3-5.1,5.3-8.9.6-10.9.4-23.4-8.1-31.1-3.2-3.4-7.2-6.2-11.7-7.7-14-4.5-29.6.8-40.3,10.1-1.5,1.4-2.9,2.9-4.2,4.2-.7.7-1.1,1.2-1.6,1.9-1.5,2.4-3.1,4.7-4.7,6.9-2.4,3.8-4.2,7.9-5.4,12.2-4.6,16.5-2,35.8,7.9,49.8,1.1,1.3,2.1,3,3.2,4.3,1.3,1.4,2.5,2.5,3.8,3.7,3.1,2.5,6.3,5.2,9.7,7.2,16.4,6.4,37.4,4.8,51.1-6.9,7.4-6.4,12.7-13.9,9.9-24.1v-.2s0,.2,0,.2ZM329.7,532.6c7.1-10.4,24.7.9,17.6,11.7-8.2,12.6-24.8.8-17.7-11.5v-.2h0Z"/>
  <path id="svg_12" class="st13" d="M402.5,606.1c-13.1-22.1-9.2-47.4-9.6-72,.5-8.7-12.3-1.2-15.5-11-3-3.2-1.1-7.9-.2-11.8,3-5.6,9.5-5.8,14.9-7,.3-.3.3-.2.3-.2,1.7-6.1-.7-12,2-18,3.3-6.6,12.8-6.4,19-3,1.4,1,1.6,2.8,3,4,1,5.4.2,10.9.8,16.7.3.4.2.3.2.3,7.9,2.4,18.1-2.1,25.1,3.3,11.6,6.9,6.2,22.4-6.6,22.2h-15c-2.9,0-4.5,1-4.5,4,.7,16.1-1.6,32.9,1,48.6.6,1.6,2.9,1.8,4.1,3,1.3,1.3,2.7,2.7,4,4,1.4,1,1.6,2.8,3,4,.4,2.3,2.5,5.1,1.9,7.6,0,0,.3,1.3.1,1.4-.9.6-.2,2.2-1,3-1.5,1.8-2.9,4.6-4.9,6.1-7.5.6-17.3,2.6-21.8-5h0l-.3-.2h0Z"/>
  <path id="svg_13" class="st3" d="M522.4,527.9c-7.9,3.1-16.2,1.1-24.6,2-.4.3-.4.2-.3.2-1.5,15.5-.1,31.5-.3,47.6.7,1.5.8,3.2,2.3,4.3,1.5,1.6,2.9,3,5,4,1.3,1.3,2.7,2.7,4,4,4.4,4.5,3.6,11.4,1,17.2-4.3,6.1-13.9,4.7-19,0-2.6-2.1-4.9-4.6-7.1-7-.1,0-.7-.9-1.1-1-14.4-20-7.8-46-10.1-69-4.3-1.2-9.5-.7-13-4.2-7.3-11.5,0-22.2,13.1-22.2,1.6-7.3-1.4-16.7,5.9-22,5.8-3.4,11.1-2.1,16.1,2,.1,0,.7.9,1.1,1,2.7,5.9.7,12.9,2,19,9.2,3.5,22-2.9,29.1,7,2.6,5.2,1.3,12-3,16.1-.3.2-.5.5-1.1.8h0v.2h0Z"/>
  <path id="svg_14" class="st9" d="M523.1,753c-5.4,2.2-10.5,4.2-15.6,5.9-10.1,3.4-20.6-3.6-22.1-13.4-1-3.1-.3-5.9-.2-9.1,1.8-8.6,8.9-13.2,13-19.8,3-4.8,7.5-8.3,11-12.6,5.6-6.9,20.2-9.1,28.4-5.3,6.3,3,10.5,8.5,15.2,13.3,3.8,4,6.7,8.8,10.2,13.1,3,3.7,5,7.7,6.3,12.5,1,2.4.3,4.6.2,7.1-1.5,7.8-7,13.2-14.8,14.4-1.7.7-3.2.3-5,.2-6.4,0-13-5.3-16.4-6.2s-6.7-.3-10.3-.2h0Z"/>
  <path id="svg_15" class="st9" d="M399.6,745.8c-3.6,11.7-13.6,16.1-24.8,11.8-3.4-1.3-6.7-2.7-10.1-3.9-5.5-1.8-10.5-1.1-15.7,1.1-5.8,2.5-11.5,5.5-18.3,4.6-7.2-.9-11.8-4.7-14.3-11.6-.9-3.9-.3-7.5-.2-11.5,3.5-9.7,10.5-16.3,16.3-23.8,4.1-5.4,8.6-10.4,14.9-13.3,9.1-4.2,18.2-2.9,25.1,3,10.9,9.3,26.1,29.9,26.9,33.5s.3,6.6.2,10.1h0Z"/>
  <path id="svg_20" class="st3" d="M766.2,606.2c-3.6-6.6-1.7-14.6-1.9-21.9-.3-20.6-.5-40.7.5-61.2.4-5.1,1.3-11.1,6.1-13.3,5.3-2.4,14.9-.4,16.9,6.2,1.2,3.4,1.2,7.4,1.2,11.1-.6,24.6,1.8,49.5-.5,73.8-.4,3.7-1.7,7.7-5,9.7-5.6,3.5-13.8,1.5-17.1-4.1v-.2h-.2Z"/>
  <path id="svg_21" class="st1" d="M661.7,736c-8-.2-14.2-2.5-18.2-9.8-1.1-3.8-.4-7.3-.3-11.2,2.4-6.2,6.6-10.7,10-15.6,1.9-2.8,5.2-4,8.9-4.5,2.7-1,5.1-.3,7.8-.2,9.5,2.2,12.7,9.7,15.3,17.2,1.2,3.5,4.1,6.6,2.8,11.2-2.4,8.1-7.7,12-16.1,12.9-3.5,1-6.6.3-10.1.2h0v-.2h-.1Z"/>
  <path id="svg_22" class="st1" d="M556.1,641.9c6.7,3.1,9,8.2,9.4,14.9.7,10.6-3.9,19.2-9.8,27.2-1.8,2.5-5.4,4-7.8,4.5s-4,0-6.2-.3c-5.7-.9-7.3-4.9-8.4-9.6-1-4.9-.2-9.5-.2-14.5,1.5-4.8,2.1-9.3,4.7-13.3,2.5-3.9,5.7-6.8,10.2-8.7,2.7-1.2,5.2-.4,8.1-.4h0v.2h0Z"/>
  <path id="svg_23" class="st1" d="M504,641.9c8.2,2.4,11.3,8.9,14,15.3,2.9,6.9,3.3,14.5,1.8,21.9-1.2,6-4.8,9.8-10.5,10.4-5.3.6-9.6-1.8-12.7-6-4.9-6.7-6.4-14.7-8.1-22.9-.8-1.8-.4-3.2-.2-5,1.6-5.3,1.9-10.7,7.7-13.4,2.8-1,5.3-.3,8.1-.2h0Z"/>
  <path id="svg_24" class="st1" d="M331.9,641.9c4.9,0,8.1,2.2,11.1,5.3,7.3,7.4,10.4,24.8,6.7,34.4-3.3,8.6-14.5,10.4-21.4,2.6-4.1-4.7-7.1-11.1-8.2-16.5-2-8.1-1.1-10.1-1-12.3,1.5-5.3,2.7-10.3,7.8-13.3,1.7-.8,3.2-.4,5-.2h0Z"/>
  <path id="svg_25" class="st9" d="M364.2,665.6c2.1-7.6,3.6-14.9,9.4-20.3,1.5-1.4,3-2.5,5.3-3.1,2.4-1,4.6-.3,7.1-.3,5.3,2.4,8.3,6.2,9.3,11.8,1,3.1.3,5.8.2,9-.6,9.7-5,17.2-11.1,23.6-5.4,5.6-19.3,4.3-20.1-7.7-1-4.4-.3-8.5-.2-13h.1Z"/>
  <path id="svg_26" class="st1" d="M324.6,704.7c-.2,6.5-3.5,10.8-8.6,13.5-5.4,2.9-10,.6-14.5-2.9-8-6.2-13-20.6-10.1-29.8,1.2-3.8,3.1-6.4,7.3-7.5,2-1.1,4.2-.3,6.4-.2,11.2,3.3,18.1,18.9,19,20.6.9,1.7.7,4.4.6,6.2h0Z"/>
  <path id="svg_27" class="st1" d="M426.6,694.7c-2.3,8.5-5.3,16.1-12.2,21.4-5,3.9-11.4,4.1-16.3,1-5.4-3.5-6.4-9.3-5.5-14.4,1.3-8,4.1-15.4,11.2-21,7.4-5.9,19.3-5,22.5,7.1.8,2,.3,3.8.2,6h0Z"/>
  <path id="svg_28" class="st1" d="M492.6,707.7c-.9,5.4-3.8,8.6-8.7,10.4-2.8,1-5.3.3-8.2.2-7.7-2.3-10.9-8.3-14-14.4-1.2-2.4-1.6-5.3-2.4-8.4-1-2.8-.3-5.2-.2-8.1,1.6-4.7,4-8,8.9-9.4,1.7-.8,3.1-.4,4.8-.2,10.6,2.8,16,10.1,19.4,19.9,1.1,3.4.3,6.4.2,9.9h.2Z"/>
  <path id="svg_29" class="st1" d="M585.8,678.9c6.2,1.1,8.5,5.3,9.6,10.8.9,1.7.4,3.2.2,5-1.7,9.4-5.2,17.6-13.3,22.3-9.2,5.3-16.3,2-19.9-8.4-1.1-3.5-.3-6.6-.2-10.2,1.5-7.1,8.4-14.9,10.3-16.5s3.5-2.1,5.6-2.7c2.1-.6,5-.5,7.7-.4h0Z"/>
  <path id="svg_31" class="st9" d="M864.2,688.5c1.5-3.8,3.7-6.3,7.8-7.3,2-1,3.8-.4,6-.2,10.6,3.1,12.5,12.5,4.2,21-3.1,1.2-6,.5-9.3.4-4.8-.2-7.3-2.4-8.4-6.9-1-2.4-.3-4.6-.2-7.1h0Z"/>
  <path id="svg_32" class="st1" d="M727.2,687.6c1.9-2.4,2.8-5.1,5.7-6.4,2.3-1.1,4.5-.4,7-.3,5.6,2.2,8.6,6.3,8.6,11.5s-2.4,9-7.6,10.7c-2.1.9-3.9.3-6.1.2-4.6-.3-5.6-3.7-7.2-6.9-1-3-.4-5.8-.3-8.9h-.1Z"/>
  <path id="svg_33" class="st1" d="M232.9,688.6c.3-2.7,5.7-8.2,13.2-7.4,4.2.5,6.7,4,8.2,7.5,2.2,5.1-1.1,12.1-6.1,13.9-6.3,2.4-12.1-.2-14.9-7.1-1-2.4-.8-4.3-.5-7h.1Z"/>
  <path id="svg_34" class="st9" d="M830.6,695.8c-1.8,4.9-5.2,7-9.8,7.4-5.6.5-8.7-2.9-11.2-7.6-1.1-2.3-.5-4.5-.3-7,1.5-4,4.1-6,7.9-7.4,2.1-1,3.9-.4,6-.2,3.9,1,5.6,3.8,7.3,6.9,1,2.7.3,5.2.2,7.9h-.1Z"/>
  <path id="svg_36" class="st1" d="M790.6,696.1c-1.5,3.2-3.2,5.6-6.9,6-2.4.9-4.5.3-7,.2-5.3-.8-6.8-4.5-7.3-8.5-.7-5.4,1.7-9.6,6.7-11.9,4-1.8,7.7-.9,11,1.5,1.3.9,2.2,2.4,3.2,4,.9,2.9.3,5.6.2,8.7h0Z"/>
  <path id="svg_37" class="st9" d="M193.7,702.4c-5.3-2.2-8-6.3-7.3-10.8.9-6,5.1-10.3,10.1-10.4,5.9,0,10.6,3.4,11.8,9.1,1.1,5.2-1.2,9.1-7.6,11.9-2.4.9-4.6.3-7,.2h0Z"/>
  <path id="svg_38" class="st3" d="M769.3,482.5c5.8-3.3,13-2.4,17.3,2.8,3.5,5.8.8,14.1-5.4,16.7-5.4,2-11-.6-14.2-5.2-1.7-3.3-1.2-7.2,0-10.5.6-1.4,1.5-2.6,2.3-3.8h0Z"/>
  <path id="svg_39" class="st1" d="M671.1,676.3c.7-4.3,3.7-6.4,6.4-8.4,2.9-2.2,8.3.4,9.8,4.5,2.4,6.5.3,12.4-3.4,17.6-3.2,4.4-10.3,2-12.6-4.3-1-3.2-.3-6.1-.2-9.3h0Z"/>
  <path id="svg_40" class="st1" d="M657.1,665.9c5.6,2.2,8.7,6.4,8.8,11.3,0,4.6-1.8,9.4-6.9,11.8-2.2,1-4,.9-6-.6-7-5.2-7.7-16-1.1-22.2,1.7-1,3.2-.5,5.1-.3h.1Z"/>
  <path id="svg_41" class="st1" d="M636.8,703.4c-9.4-5.1-10.9-11.8-4.6-17.8,2.3-2.2,4.7-1.7,7-1.3,4.6.8,7,4.6,7.9,8.7.9,3.9.7,8-4.3,10.2-2,.8-3.8.3-6,.2h0Z"/>
  <path id="svg_42" class="st1" d="M706.6,698.9c-2,4.2-4.9,7-8.7,9.2-1.7.9-3.1.4-4.9.2-6.2-3-6.7-10.9-1.4-17,.9-1,1.8-1.9,3.5-2.2,1.7-.9,3.1-.4,4.8-.2,3.4.2,4.3,3,6.3,4.9,1,1.7.5,3.2.3,5.1h.1Z"/>
  <path class="st0" d="M281.3,548.1l-.3-.3c-1.3-12.6-10-23.2-19.5-31.2-17.1-10.5-32-14.5-51.6-5.9v.2c-2.6,1-4,1.8-5.9,3.7v.2c-1.4,2.2-4,2.5-4.3,0-1.4-6.7-4.7-10.1-12.8-8.9-4.4,0-9.8,3.5-10.7,8.4-.3,37.1-.2,73.8-.2,110.5-1.4,13.7,20.1,17.3,25.4,6.2,5.5-5.9,2.4-23.2,3.4-31.4,1.7,3.7,9.3,5.8,13.7,6.3,38.1,7.7,67.7-19.3,62.7-57.6h.1v-.2ZM245.9,574.5h0c-42.9,34.2-67.1-50.3-14.2-43.4,19.3,1.4,31.2,30.2,14.1,43.4h0Z"/>
  <path class="st7" d="M397.2,465.1c-.2.2-.5.9-.7,1.3-1.5,2.8-4.9,3.4-7.2,5.3-1.2.8-2.5,1.5-3.6,2.5-3.5,2.6-4.3,8.3-7.1,7.5-1-.1-1.7-1-1.7-2-1.2-51.5.2-127.4-.7-178.3,0-1.3-.4-2.2-1.8-2.3-10-1.2-21.2.4-31.4-.5-1.5,0-2.9-.5-4.2-1.3-8.6-4.6-7.9-13-2.1-18.8,2.1-2.4,178.9-156.5,181-159,2.8-2.7,7.1-3.9,10.8-4,4.6,0,9.9,2.2,13,5.9,1.8,2.1,77.9,66.9,78.7,68.6,1.3,2.4,1.3,3.7,2.7,4.7,1.2,1,4.2,1.3,5.7,2.1,2.5,1.9,5.2,3.9,8.2,5.6.8.4,1.6,1.3,1.9,1.9.8,2.1,1.2,4.4,2.9,6,1.7,2,4.8,1.8,6.9,3.1,3.9,3.9,7.6,8,12.1,11.3,4.2,4.2,52.8,44.8,54.7,47,3.7,4.2,9.5,5.6,8.9,12.6-.2.9.4,2.2.8,2.7h0c0,.6-.5,1-.8,1.3-5.2,4.7-12.1,5.1-19,5.1-8.3-.3-15.9-.9-23.3-.3-1,0-2.8-.2-3.6.1-.2.2,0,.4,0,.9-2.5,63.2,2.5,126.9-2.4,189.8-.2,1.3-1.1,2.4-2.5,2.4-5,.4-17,1.5-17-.9,1.4-36.5-4.4-194.2,3.5-205.4,3.4-4.8,9.3-7.9,19.2-8.5.4,0,.8,0,1.1-.1.6-.1.9-.4.7-.7-.1-.2-.4-.6-.7-.9-47.4-44-97.7-84.8-146.2-127.7-1.4-1.2-3.7-3.3-5.4-3.1-53,44.5-106.4,91.3-157.1,138.1-.4.4-.8.8-.9,1.1-.2.6,1.2.5,1.7.5,13.5,0,25.6,6.3,25.1,21.3"/>
  <path id="svg_4" class="st8" d="M395.9,467.6c-.3-46.2-.3-92.3-.3-138.4s22.5-20.6,34.1-17.3c6.2,1,14.1.7,20.1,1.9,8.7.8,15.3,8.1,15.6,16.8-1.3,6.7-2.7,17.2-6.7,22.9-3.9,7.5-10.8,12.8-16.5,19-4.9,3.4-2.5,7.5-1.5,11.7,4.1,33.1,10.7,65.9,9.1,99.3-2.7,4.2-8.7.7-12.8,1.9-4.2.7-6.8-1.4-8.2-5.5-1.7-3.4-3.3-6.7-7.5-8.1-7.4-6.5-16.1-5.4-25.2-4.6h0l-.2.4h0Z"/>
</svg>