<?xml version="1.0" encoding="UTF-8"?>
<svg id="_레이어_1" xmlns="http://www.w3.org/2000/svg" xmlns:svg="http://www.w3.org/2000/svg" version="1.1" viewBox="0 0 781.7 308.6">
  <!-- Generator: Adobe Illustrator 29.1.0, SVG Export Plug-In . SVG Version: 2.1.0 Build 142)  -->
  <defs>
    <style>
      .st0 {
        fill: #fc6d1d;
      }

      .st1 {
        fill: #4d2f15;
      }

      .st2 {
        fill: #809311;
      }

      .st3 {
        fill: #543216;
      }

      .st4 {
        fill: #6baea4;
      }

      .st5 {
        fill: #fede54;
      }

      .st6 {
        fill: #ba6420;
      }

      .st7 {
        fill: #514330;
      }
    </style>
  </defs>
  <path class="st4" d="M614,81.6l-.3-.3c-1.3-12.6-10-23.2-19.5-31.2-17.1-10.5-32-14.5-51.6-5.9v.2c-2.6,1-4,1.8-5.9,3.7v.2c-1.4,2.2-4,2.5-4.3,0-1.4-6.7-4.7-10.1-12.8-8.9-4.4,0-9.8,3.5-10.7,8.4-.3,37.1-.2,73.8-.2,110.5-1.4,13.7,20.1,17.3,25.4,6.2,5.5-5.9,2.4-23.2,3.4-31.4,1.7,3.7,9.3,5.8,13.7,6.3,38.1,7.7,67.7-19.3,62.7-57.6h0ZM578.6,108h0c-42.9,34.2-67.1-50.3-14.2-43.4,19.3,1.4,31.2,30.2,14.1,43.4h.1Z"/>
  <path class="st4" d="M495.4,78.8c-.6-4.1-3.1-8.7-6.1-13.7-2.4-3.7-4.5-6.7-7.8-9.1-.4-.3-.5-.5-.9-.7-16.4-15.9-42.5-19.4-62.7-9.1-10.1,5.1-18.6,13.6-23.2,23.9-9.3,20.8-4.7,48.2,13,62.9,20.8,17.5,54.9,16.2,73.7-3.4,13.9-12.9,15.5-28,14-50.7v-.2h0ZM457.6,114c-15.5,7.8-34,3-41.1-13-13.4-29.2,31.5-53,49.5-22.3,7.1,12.2,5.3,27.5-8.2,35.2h-.2,0Z"/>
  <path class="st7" d="M755,98.7c-4.4-21.2-13-42.3-29.1-57-16.6-10.7-29.9,2.9-41.4,13.7-44.3,40.2-26.8,125.4,41,77.1,1.9-1.4,4.9-4,5.5-.3.5,12.8,18.1,19.5,24.5,6.9,6.1-12.1.5-28.6-.5-40.5h0ZM732.8,101.1c-1.4,17.2-15,21.7-29.2,28.5-49.9,13.4-4.2-105,24.6-53,3.3,6,5.3,17.7,4.6,24.5Z"/>
  <path class="st5" d="M237.1,110.7c-.2-.8-.8-1.7-1.3-2.1-5.5-5.4-15.1-2.8-20.2,2.1-2.1,2.1-3.9,3.9-6.4,5.6-5.6,5.3-13.2,7.6-20.2,4.2-7.7-3.4-11.5-11.6-11-19.8,0-3.3-.3-6.9,3.6-6.6,12.1.9,26.5,4.2,37.6-2.6,1.1-.7,2.2-1.6,3-2.4,2.5-2.5,5.3-5.1,5.3-8.9.6-10.9.4-23.4-8.1-31.1-3.2-3.4-7.2-6.2-11.7-7.7-14-4.5-29.6.8-40.3,10.1-1.5,1.4-2.9,2.9-4.2,4.2-.7.7-1.1,1.2-1.6,1.9-1.5,2.4-3.1,4.7-4.7,6.9-2.4,3.8-4.2,7.9-5.4,12.2-4.6,16.5-2,35.8,7.9,49.8,1.1,1.3,2.1,3,3.2,4.3,1.3,1.4,2.5,2.5,3.8,3.7,3.1,2.5,6.3,5.2,9.7,7.2,16.4,6.4,37.4,4.8,51.1-6.9,7.4-6.4,12.7-13.9,9.9-24.1v-.2.2ZM189.7,65.6c7.1-10.4,24.7.9,17.6,11.7-8.2,12.6-24.8.8-17.7-11.5v-.2h0Z"/>
  <path id="svg_12" class="st6" d="M262.5,139.1c-13.1-22.1-9.2-47.4-9.6-72,.5-8.7-12.3-1.2-15.5-11-3-3.2-1.1-7.9-.2-11.8,3-5.6,9.5-5.8,14.9-7,.3-.3.3-.2.3-.2,1.7-6.1-.7-12,2-18,3.3-6.6,12.8-6.4,19-3,1.4,1,1.6,2.8,3,4,1,5.4.2,10.9.8,16.7.3.4.2.3.2.3,7.9,2.4,18.1-2.1,25.1,3.3,11.6,6.9,6.2,22.4-6.6,22.2h-15c-2.9,0-4.5,1-4.5,4,.7,16.1-1.6,32.9,1,48.6.6,1.6,2.9,1.8,4.1,3,1.3,1.3,2.7,2.7,4,4,1.4,1,1.6,2.8,3,4,.4,2.3,2.5,5.1,1.9,7.6,0,0,.3,1.3.1,1.4-.9.6-.2,2.2-1,3-1.5,1.8-2.9,4.6-4.9,6.1-7.5.6-17.3,2.6-21.8-5h0l-.3-.2h0Z"/>
  <path id="svg_13" class="st2" d="M382.4,60.9c-7.9,3.1-16.2,1.1-24.6,2-.4.3-.4.2-.3.2-1.5,15.5-.1,31.5-.3,47.6.7,1.5.8,3.2,2.3,4.3,1.5,1.6,2.9,3,5,4,1.3,1.3,2.7,2.7,4,4,4.4,4.5,3.6,11.4,1,17.2-4.3,6.1-13.9,4.7-19,0-2.6-2.1-4.9-4.6-7.1-7-.1,0-.7-.9-1.1-1-14.4-20-7.8-46-10.1-69-4.3-1.2-9.5-.7-13-4.2-7.3-11.5,0-22.2,13.1-22.2,1.6-7.3-1.4-16.7,5.9-22,5.8-3.4,11.1-2.1,16.1,2,.1,0,.7.9,1.1,1,2.7,5.9.7,12.9,2,19,9.2,3.5,22-2.9,29.1,7,2.6,5.2,1.3,12-3,16.1-.3.2-.5.5-1.1.8h0v.2h0Z"/>
  <path id="svg_14" class="st3" d="M383.1,286c-5.4,2.2-10.5,4.2-15.6,5.9-10.1,3.4-20.6-3.6-22.1-13.4-1-3.1-.3-5.9-.2-9.1,1.8-8.6,8.9-13.2,13-19.8,3-4.8,7.5-8.3,11-12.6,5.6-6.9,20.2-9.1,28.4-5.3,6.3,3,10.5,8.5,15.2,13.3,3.8,4,6.7,8.8,10.2,13.1,3,3.7,5,7.7,6.3,12.5,1,2.4.3,4.6.2,7.1-1.5,7.8-7,13.2-14.8,14.4-1.7.7-3.2.3-5,.2-6.4,0-13-5.3-16.4-6.2s-6.7-.3-10.3-.2h0Z"/>
  <path id="svg_15" class="st3" d="M259.6,278.8c-3.6,11.7-13.6,16.1-24.8,11.8-3.4-1.3-6.7-2.7-10.1-3.9-5.5-1.8-10.5-1.1-15.7,1.1-5.8,2.5-11.5,5.5-18.3,4.6-7.2-.9-11.8-4.7-14.3-11.6-.9-3.9-.3-7.5-.2-11.5,3.5-9.7,10.5-16.3,16.3-23.8,4.1-5.4,8.6-10.4,14.9-13.3,9.1-4.2,18.2-2.9,25.1,3,10.9,9.3,26.1,29.9,26.9,33.5s.3,6.6.2,10.1h0Z"/>
  <path id="svg_20" class="st2" d="M626.2,139.2c-3.6-6.6-1.7-14.6-1.9-21.9-.3-20.6-.5-40.7.5-61.2.4-5.1,1.3-11.1,6.1-13.3,5.3-2.4,14.9-.4,16.9,6.2,1.2,3.4,1.2,7.4,1.2,11.1-.6,24.6,1.8,49.5-.5,73.8-.4,3.7-1.7,7.7-5,9.7-5.6,3.5-13.8,1.5-17.1-4.1v-.2h-.2Z"/>
  <path id="svg_21" class="st1" d="M521.7,269c-8-.2-14.2-2.5-18.2-9.8-1.1-3.8-.4-7.3-.3-11.2,2.4-6.2,6.6-10.7,10-15.6,1.9-2.8,5.2-4,8.9-4.5,2.7-1,5.1-.3,7.8-.2,9.5,2.2,12.7,9.7,15.3,17.2,1.2,3.5,4.1,6.6,2.8,11.2-2.4,8.1-7.7,12-16.1,12.9-3.5,1-6.6.3-10.1.2h0v-.2h-.1Z"/>
  <path id="svg_22" class="st1" d="M416.1,174.9c6.7,3.1,9,8.2,9.4,14.9.7,10.6-3.9,19.2-9.8,27.2-1.8,2.5-5.4,4-7.8,4.5s-4,0-6.2-.3c-5.7-.9-7.3-4.9-8.4-9.6-1-4.9-.2-9.5-.2-14.5,1.5-4.8,2.1-9.3,4.7-13.3,2.5-3.9,5.7-6.8,10.2-8.7,2.7-1.2,5.2-.4,8.1-.4h0v.2h0Z"/>
  <path id="svg_23" class="st1" d="M364,174.9c8.2,2.4,11.3,8.9,14,15.3,2.9,6.9,3.3,14.5,1.8,21.9-1.2,6-4.8,9.8-10.5,10.4-5.3.6-9.6-1.8-12.7-6-4.9-6.7-6.4-14.7-8.1-22.9-.8-1.8-.4-3.2-.2-5,1.6-5.3,1.9-10.7,7.7-13.4,2.8-1,5.3-.3,8.1-.2h0Z"/>
  <path id="svg_24" class="st1" d="M191.9,174.9c4.9,0,8.1,2.2,11.1,5.3,7.3,7.4,10.4,24.8,6.7,34.4-3.3,8.6-14.5,10.4-21.4,2.6-4.1-4.7-7.1-11.1-8.2-16.5-2-8.1-1.1-10.1-1-12.3,1.5-5.3,2.7-10.3,7.8-13.3,1.7-.8,3.2-.4,5-.2h0Z"/>
  <path id="svg_25" class="st3" d="M224.2,198.6c2.1-7.6,3.6-14.9,9.4-20.3,1.5-1.4,3-2.5,5.3-3.1,2.4-1,4.6-.3,7.1-.3,5.3,2.4,8.3,6.2,9.3,11.8,1,3.1.3,5.8.2,9-.6,9.7-5,17.2-11.1,23.6-5.4,5.6-19.3,4.3-20.1-7.7-1-4.4-.3-8.5-.2-13h.1Z"/>
  <path id="svg_26" class="st1" d="M184.6,237.7c-.2,6.5-3.5,10.8-8.6,13.5-5.4,2.9-10,.6-14.5-2.9-8-6.2-13-20.6-10.1-29.8,1.2-3.8,3.1-6.4,7.3-7.5,2-1.1,4.2-.3,6.4-.2,11.2,3.3,18.1,18.9,19,20.6.9,1.7.7,4.4.6,6.2h0Z"/>
  <path id="svg_27" class="st1" d="M286.6,227.7c-2.3,8.5-5.3,16.1-12.2,21.4-5,3.9-11.4,4.1-16.3,1-5.4-3.5-6.4-9.3-5.5-14.4,1.3-8,4.1-15.4,11.2-21,7.4-5.9,19.3-5,22.5,7.1.8,2,.3,3.8.2,6h0Z"/>
  <path id="svg_28" class="st1" d="M352.6,240.7c-.9,5.4-3.8,8.6-8.7,10.4-2.8,1-5.3.3-8.2.2-7.7-2.3-10.9-8.3-14-14.4-1.2-2.4-1.6-5.3-2.4-8.4-1-2.8-.3-5.2-.2-8.1,1.6-4.7,4-8,8.9-9.4,1.7-.8,3.1-.4,4.8-.2,10.6,2.8,16,10.1,19.4,19.9,1.1,3.4.3,6.4.2,9.9h.2Z"/>
  <path id="svg_29" class="st1" d="M445.8,211.9c6.2,1.1,8.5,5.3,9.6,10.8.9,1.7.4,3.2.2,5-1.7,9.4-5.2,17.6-13.3,22.3-9.2,5.3-16.3,2-19.9-8.4-1.1-3.5-.3-6.6-.2-10.2,1.5-7.1,8.4-14.9,10.3-16.5s3.5-2.1,5.6-2.7c2.1-.6,5-.5,7.7-.4h0Z"/>
  <path id="svg_31" class="st3" d="M724.2,221.5c1.5-3.8,3.7-6.3,7.8-7.3,2-1,3.8-.4,6-.2,10.6,3.1,12.5,12.5,4.2,21-3.1,1.2-6,.5-9.3.4-4.8-.2-7.3-2.4-8.4-6.9-1-2.4-.3-4.6-.2-7.1h0Z"/>
  <path id="svg_32" class="st1" d="M587.2,220.6c1.9-2.4,2.8-5.1,5.7-6.4,2.3-1.1,4.5-.4,7-.3,5.6,2.2,8.6,6.3,8.6,11.5s-2.4,9-7.6,10.7c-2.1.9-3.9.3-6.1.2-4.6-.3-5.6-3.7-7.2-6.9-1-3-.4-5.8-.3-8.9h-.1Z"/>
  <path id="svg_33" class="st1" d="M92.9,221.6c.3-2.7,5.7-8.2,13.2-7.4,4.2.5,6.7,4,8.2,7.5,2.2,5.1-1.1,12.1-6.1,13.9-6.3,2.4-12.1-.2-14.9-7.1-1-2.4-.8-4.3-.5-7h.1Z"/>
  <path id="svg_34" class="st3" d="M690.6,228.8c-1.8,4.9-5.2,7-9.8,7.4-5.6.5-8.7-2.9-11.2-7.6-1.1-2.3-.5-4.5-.3-7,1.5-4,4.1-6,7.9-7.4,2.1-1,3.9-.4,6-.2,3.9,1,5.6,3.8,7.3,6.9,1,2.7.3,5.2.2,7.9h-.1Z"/>
  <path id="svg_36" class="st1" d="M650.6,229.1c-1.5,3.2-3.2,5.6-6.9,6-2.4.9-4.5.3-7,.2-5.3-.8-6.8-4.5-7.3-8.5-.7-5.4,1.7-9.6,6.7-11.9,4-1.8,7.7-.9,11,1.5,1.3.9,2.2,2.4,3.2,4,.9,2.9.3,5.6.2,8.7h0Z"/>
  <path id="svg_37" class="st3" d="M53.7,235.4c-5.3-2.2-8-6.3-7.3-10.8.9-6,5.1-10.3,10.1-10.4,5.9,0,10.6,3.4,11.8,9.1,1.1,5.2-1.2,9.1-7.6,11.9-2.4.9-4.6.3-7,.2h0Z"/>
  <path id="svg_38" class="st2" d="M629.3,15.5c5.8-3.3,13-2.4,17.3,2.8,3.5,5.8.8,14.1-5.4,16.7-5.4,2-11-.6-14.2-5.2-1.7-3.3-1.2-7.2,0-10.5.6-1.4,1.5-2.6,2.3-3.8,0,0,0,0,0,0h0c0,0,0,0,0,0Z"/>
  <path id="svg_39" class="st1" d="M531.1,209.3c.7-4.3,3.7-6.4,6.4-8.4,2.9-2.2,8.3.4,9.8,4.5,2.4,6.5.3,12.4-3.4,17.6-3.2,4.4-10.3,2-12.6-4.3-1-3.2-.3-6.1-.2-9.3h0Z"/>
  <path id="svg_40" class="st1" d="M517.1,198.9c5.6,2.2,8.7,6.4,8.8,11.3,0,4.6-1.8,9.4-6.9,11.8-2.2,1-4,.9-6-.6-7-5.2-7.7-16-1.1-22.2,1.7-1,3.2-.5,5.1-.3h.1Z"/>
  <path id="svg_41" class="st1" d="M496.8,236.4c-9.4-5.1-10.9-11.8-4.6-17.8,2.3-2.2,4.7-1.7,7-1.3,4.6.8,7,4.6,7.9,8.7.9,3.9.7,8-4.3,10.2-2,.8-3.8.3-6,.2h0Z"/>
  <path id="svg_42" class="st1" d="M566.6,231.9c-2,4.2-4.9,7-8.7,9.2-1.7.9-3.1.4-4.9.2-6.2-3-6.7-10.9-1.4-17,.9-1,1.8-1.9,3.5-2.2,1.7-.9,3.1-.4,4.8-.2,3.4.2,4.3,3,6.3,4.9,1,1.7.5,3.2.3,5.1h.1Z"/>
  <path class="st0" d="M141.3,81.1l-.3-.3c-1.3-12.6-10-23.2-19.5-31.2-17.1-10.5-32-14.5-51.6-5.9v.2c-2.6,1-4,1.8-5.9,3.7v.2c-1.4,2.2-4,2.5-4.3,0-1.4-6.7-4.7-10.1-12.8-8.9-4.4,0-9.8,3.5-10.7,8.4-.3,37.1-.2,73.8-.2,110.5-1.4,13.7,20.1,17.3,25.4,6.2,5.5-5.9,2.4-23.2,3.4-31.4,1.7,3.7,9.3,5.8,13.7,6.3,38.1,7.7,67.7-19.3,62.7-57.6h.1ZM105.9,107.5h0c-42.9,34.2-67.1-50.3-14.2-43.4,19.3,1.4,31.2,30.2,14.1,43.4h0Z"/>
</svg>