<?xml version="1.0" encoding="UTF-8"?>
<svg id="_레이어_1" xmlns="http://www.w3.org/2000/svg" xmlns:svg="http://www.w3.org/2000/svg" version="1.1" viewBox="0 0 1024 1024">
  <!-- Generator: Adobe Illustrator 29.1.0, SVG Export Plug-In . SVG Version: 2.1.0 Build 142)  -->
  <defs>
    <style>
      .st0 {
        fill: #fc6d1d;
      }

      .st1 {
        fill: #bac57f;
      }

      .st2 {
        fill: #fab589;
      }

      .st3 {
        fill: #4d2f15;
      }

      .st4 {
        fill: #584d3b;
      }

      .st5 {
        fill: #809311;
      }

      .st6 {
        fill: #50412f;
      }

      .st7 {
        fill: #7c8c11;
      }

      .st8 {
        fill: #fff;
      }

      .st9 {
        fill: #f6803d;
      }

      .st10 {
        fill: #fd6f1d;
      }

      .st11 {
        fill: #e85f16;
      }

      .st12 {
        fill: #aaa195;
      }

      .st13 {
        fill: #543216;
      }

      .st14 {
        fill: #6baea4;
      }

      .st15 {
        fill: #fede54;
      }

      .st16 {
        fill: #62a39c;
      }

      .st17 {
        fill: #ba6420;
      }

      .st18 {
        fill: #514330;
      }
    </style>
  </defs>
  <path class="st18" d="M365.7,437.6c0,15.9.1,31.7-.2,48-31.2.8-63.6.6-95.2.4h.2c0-.8,0-1.3-.3-1.8h-.4c1.1-9.9.7-20,1.5-30,.5-5.9,1.6-11.7-.7-17.2-2,3.7-6.6,4.3-9.2,7.1-.2,0-1,1.2-1.5,1.1-.7.2-1.6.5-2.5.9h0c-8.9,4.7-20.5,4.6-30,1,0,0,0-.1-.1-.2h.2c-.3-.4-.6-.6-.8-.5-1-.9-2.7-1.2-3.4-2.4-1.1.3-2-.3-2.8-1.6.1,0,.2-.1.3-.2-9.6-12.3-11.9-31.9-5.6-46,6.3-2.7,12.6-3.3,19-3.6,2,0,4.4.2,6.3-1.5.8-.6,1.9-.9,2.8-1.9.2-.6.3-.8.8-1,1.4-.7,1.6-2.4,2.6-3.4v.3c.3-.2.4-.5.4-.8,0,0,.1-.1.2-.2h0s.1-.2.2-.3v.3c.5-.4.6-.8.5-1,1.6-2,3.4-3.7,5.4-5.2v.2c.4-.3.6-.5.6-.7,8.8-6.5,20.2-9.6,31.2-7h-.7c1.1.8,2.2,1,3,.3h.5c.2.2.4.3.7.4h-.3c.8.5,1.6.6,2.1.4h.5c.2.2.4.4.6.5h-.4c.3.4.7.5,1,.4h0c1.4,1,3.1,1.7,4.5,2.6h-.4c.3.5.7.6,1.1.4.1.2.4.5.7.7-.3-.2-.5-.3-.8-.1.3.4.7.6,1.1.4h0c0,.1.3.3.5.6-.2,0-.3-.1-.6,0,.3.4.7.5,1,.4h0c0,.1.4.4.7.7-.3-.2-.5-.3-.8-.1.4.4.7.6,1.1.4h0c0,.1.4.4.7.7-.3-.2-.5-.3-.8-.1.4.4.7.6,1.1.4h0c.1.1.3.3.5.6h-.6c.2.4.6.6.9.5.6,3.7,4.6,5.3,6.3,8.4h-.1c.3.3.5.5.8.5,0,0,.2.1.2.2h0c.5.9,1.2,2.3,2.2,3.2h-.3c.3.7.6,1.2,1,1.3v-.2c.7,1.2,1.1,2.2,1.2,3l-.2-.2c-2.5,1.4-3,1.4-4.9-1.8-3.6-5-18.2-25.8-24.1-17.4-8.7,25.4-9.8,74.6,17,89.5,7.1,4.2,14.5,3.5,20.8-.3,10-4.9,13.1-19.1,8.5-29.1-.2-4.2,4.6-3,9.5-4.1,9.5-8.5,5.8-23.4.3-33.3h.1s-.1,0-.2-.1c-.1-.4-.5-.6-1-.8h0v-.2q-.1,0,0,0c-.4-.4-.7-.4-1-.7h0l-.2-.2h.3c-.2-.3-.5-.5-.9-.5,0,0-.2-.1-.2-.2h0s-.1-.2-.2-.3h.3c0-.8-.5-1-.9-.6-.2-.3-.1-.5-.2-.8h.2c-.5-.9-.9-.9-1.4-1.5h.4c-.4-.4-.6-.6-.9-.5l-.2-.2h0s-.1-.2-.2-.3h.4c-.4-.4-.6-.6-.9-.5l-.2-.2h0s-.1-.2-.2-.3h.4c-.3-.5-.6-.6-.9-.5l-.2-.2h0s-.2-.1-.3-.2h.4c-.4-.5-.8-.6-1-.5-1.2-1.1-2.5-2.5-3.8-3.4h.7c-.7-.7-1.1-1.2-1.8-.6-.2,0-.3-.2-.5-.3h.3c-.2-.3-.5-.5-.8-.5l-.2-.2h0s0-.1-.1-.2h.1c-.4-.5-.7-.6-1-.5-.7-.3-.8-.9-1.2-1.4h.2c-1.4-1.4-3.2-1.9-4.8-3.1-1.8-4.2,4.7-1.3,6.8-1,4.8,1.6,9.8,5.3,14.9,6.1.7.8,2.3,2,3.7,1.9.2.1.3.3.5.4h-.2c.3.3.6.5.9.5h0c.5.8,2,1.5,3,2,.5.7,1.9.5,2.4,1.4h-.2c.2.3.5.4.7.4h0l.4.4h-.3c.3.3.6.5.9.5h0c0,.1.2.3.3.4h-.3c.3.3.5.4.8.4h0c.1.1.3.3.4.5h-.2c.2.4.5.5.8.5.1.2.3.3.5.5h-.3c.3.4.6.5.8.5,0,.1.2.3.4.5h-.2c.3.4.6.5.8.5l.4.4h-.2c.2.3.5.5.7.5,0,.2.2.3.5.5h-.3c.2.4.5.5.8.5.1.2.2.3.2.5.6,3.3,3.9,5.4,3.5,9.1,3.5,5,1.5,12.2,3.4,18,1,3.4.4,6.8.4,10l.3,1Z"/>
  <path id="svg_3" class="st6" d="M729.4,411.2c0-.5.2-.8.6-1,.5-.2.9-.4,1.3-.9l.2-.2c.3-.2.5-.4.9-.9,0-.2.2-.1,0-.1.3-.2.5-.4.8-.9,0-.2.2-.1.2-.2,1.3-.7,2.7-1.4,3.8-2.9.2-.6.3-.8.8-1s.8-.4,1.2-.9c.2-.2.2-.1,0-.1.2-.2.5-.4.9-.9.2-.2.2-.1,0-.1.3-.3.6-.6.9-1.2v-.6c.3-.4.5-.6.9-1.1.2-.2.2-.1.2-.2.3-.2.5-.4.9-.9.2-.2.2-.1,0-.1.6-.5,1.1-1.1,1.9-1.9.6-1.1,1-2,1.7-2.9.8-.5,1-1.1,1.3-1.9.2-.3.2-.2.2-.2,4.8-6,6-13.1,6.2-20.8-.2-.3-.3-.5-.3-.6,0-.4-.2-.8,0-1.6.2-.5,0-.7,0-.8.8-7.1,0-13.8-4.7-20-.3-.3-.4-.5-.3-.6-1.4-5.2-3-10.4-2.7-16.1-.2-.4-.3-.7-.3-.9-.9-3.8-.2-7.4-.4-11.5,1.5-2.7,3.1-1.3,5-.4.6.6.8.9,1.3,1.3,1.5.9,2.2,2.2,4,2.8.3.2.2.2.2.2.6,1.1,1.2,2.2,2.8,2.8.3.2.2.2.2.2.2.2.4.5.9.9.2.1,0,.2,0,.1.2.2.4.5.9.9.2.1,0,.2.2.1.2.2.4.5.8.9.2.2,0,.2,0,.1.2.2.4.5.9.9.2.2,0,.2,0,.1.2.2.4.5.9.9.2.1,0,.2,0,.1.2.2.4.5.9.9.2.1,0,.2,0,.1.2.2.4.5.9.9.2.1,0,.2,0,.1,3.8,1,7.1-1.4,10.7-1.9,3.2-.5,6.3-1.2,9.9-1.8.5-.5.7-.8,1.2-1.2,1.5-.9,2.9-1.4,4-2.9l.2-.2c1.3-.7,2.6-1.4,3.8-2.8l.2-.2c.2-.2.5-.4.9-.9.2-.2.2-.1,0-.1.2-.2.5-.4.9-.9.2-.2.2-.1,0-.1.2-.2.5-.4.9-.9.2-.2.2-.1,0-.1.2-.2.5-.4.9-.9.2-.2.2-.1,0-.1,1.7-1.2,3.5-.8,5.7-.2.4.2.3.2.3.2,2,2,4,4.1,5.8,6.8l.2.2c3,8.6,2.9,17.2-.8,26-.2.4,0,.7,0,.8-.3.4-.5.6-.9,1.1-.2.2-.2.1,0,.1-1.4,1.2-2,2.9-2.8,4.8-.2.3-.2.2-.2.2-1.8,1.4-2.9,3.3-3.8,5.8-.2.3-.2.2-.2.2-.8.6-1.2,1.6-1.8,2.8-.2.3-.2.2-.2.2-2.2,2.6-4.2,5.2-4.9,9.1v.8c-4.2,6.4-5.4,13.7-6.7,20.8-3.2,17.5-6.6,34.9-8.5,52.5-.5,4.6-1.1,9.2-1,13.9,0,3.1-.8,4.7-4.6,4.5-6-.2-12,.4-17.1,5.1-.3.3-.3.2-.3.2-.2.2-.5.4-.9.9-.2.2-.2.1,0,.1-.2.2-.5.4-.9.9-.2.2-.2.1,0,.1-.2.2-.5.4-.9.9-.2.2-.2.1,0,.1-.3.2-.6.5-.9,1.2v.6c-.3.4-.5.6-.9,1.1-.2.2-.2.1,0,.1-2.5,2.2-2.7,5.5-3.8,8.8-.2.3-.2.2-.2.2-3.4.8-6.8.8-10.7-.3-5.1,0-9.7-.7-14.8-.3-8.3,0-16.1.1-24.4-.2-.4-.2-.9-.2-1.1-.2-.8-.4-1.5-.5-2.1-.5-5.5-.1-8.5-2.9-9.2-8.4-1.1-9,.6-17.5,5-25.9.2-.5.2-.7.3-1.2.7-.5,1.1-.9,1.7-1.6.2-.5.3-.8.7-1.6.5-1.2.6-1.8,1-2.6,1.3-.8,1.7-1.7,2.3-3,.2-.3.2-.2.2-.2.2-.2.5-.4.9-.9.2-.2.2-.1,0-.1.2-.2.5-.5.9-.9.5-.7.8-1.2,1.2-2,.8-.6,1.3-1,1.8-1.9,0-.6.2-.9.7-1.1,1.8-1.3,3.3-2.6,4.2-4.8.2-.3.2-.2.2-.2.2-.2.5-.4.9-.9,0-.2.2-.1.2-.2,2.3-1,3.9-2.8,5.8-4.8l.2-.2c.2-.2.5-.4.9-.9.2-.2.2-.1,0-.1.2-.2.5-.4.9-.9.2-.2.2-.1,0-.1,1.3-.7,2.7-1.4,3.8-2.9.2-.6.3-.8.8-1s.8-.5,1.2-.9c.1-.1.1-.2,0-.2.8-.6,1.9-.9,2.8-1.9.4-.5.6-.8,1-1.1.8-.5,1.6-.9,2-1.9h1.3Z"/>
  <path id="svg_4" class="st11" d="M395.9,467.6c-.3-46.2-.3-92.3-.3-138.4s-.2-5,1-7.8c.8-1.1,1.1-2.1,2.1-3.1,9.8-5.2,19.4-9.7,31-6.4,1.8.6,3.2.9,5.1.4,3.2,0,6,.5,9.1.7,3.2.3,3.8.8,5.9.8s1.3.1,2.2.3c1.7.6,2.9,1.3,4.6,1.9,1.9.8,3.1,2,4.5,3.5.9,1,1.5,1.8,2.3,2.9.6,1.6.7,2.9.7,4.7v10.6c0,.9,0,1.4-.2,2.3-.3,1.1-.5,1.8-.7,2.8-.3,1.7-.6,3-1.3,4.6-.4.9-.7,1.5-1,2.4-.2.5-.3.7-.5,1.1-.7.9-1.2,1.5-1.7,2.6-1.2,2.7-2.6,5-4.8,7-1.9,1.3-3.3,2.6-4.5,4.6-2.2,2.8-4.6,4.9-7.2,7.4-4.9,3.4-2.5,7.5-1.5,11.7.3,1.4.4,2.4.5,3.8,1.9,15.1,3.9,29.9,6.3,44.9.3.9.4,1.5.5,2.4.2,2.3-.1,4.2.7,6.4.2,1,.3,1.5.4,2.5.3,7.8-.3,15.1.5,22.9.3,1,.4,1.6.5,2.7,0,4.7.3,9-.3,13.7-1,2.2-2.5,1.9-4,1.9-3,0-5.9-.3-8.8,0-4,.5-6.6-.8-8-5.2-.3-.4-.2-.4-.2-.3-.3-.3-.5-.6-.8-1.2,0-.3-.1-.3-.1-.4-1.1-2.9-3-4.9-6.2-6.3-.3-.2-.4-.1-.4-.2-.4-.1-.8-.3-1.3-.8l-.2-.2c-7.1-5.9-15.3-4-23.7-3.6h0l-.2.4h0Z"/>
  <path id="svg_11" class="st0" d="M439.1,171.8c-1.9,6-3.3,12.1-6.8,17.5-1.7,2.6-4.7,4.6-6,7.9-.7.9-1.1,1.4-1.9,2.1-.9.5-1.6.8-2.1,1.9-.2.2-.1.2-.1.2-9.3,7.2-19.9,10.2-31.6,10-12.5-.2-25,0-37.5,0s-2,0-3,0c-1.9-.2-4.7.6-5.1-1.8-.4-2.9,2.7-2.8,4.6-3.3,4.5-1.3,8.7-3.2,13.2-5.6.3-.3.3-.2.3-.2,0,0,2.5-1.4,2.8-1.8,15.1-15.2,29.4-41.5,31-42.9s2.2-3.1,3-5c6.4-10.6,9-17.8,10.2-21.5,1.5-4.4,3-8.8,5.5-12.6,6-9,16.5-13.3,28.2-5.3.3.2-2.5-1.3.3.2s1.9,13.5,3.8,15.7c1.9,2.2.2.3.2.3,1.1,1.8,6.9,1.9,6.7,4.7-.2,2.8-3.4,1.1-6.1,2.3-5.6,4.8-8.6,9.9-8.4,14.2l-1.2,22.9-.2.5.2-.4h0Z"/>
  <path class="st4" d="M332.6,451.1c.3,15.9-18.3,26.1-31.4,17.9-23.9-14-22.7-46.3-22.1-70.9,3.3-35.8,12.5-26.6,29.3-3.8,1.9,3.3,2.4,3.3,5,1.9,2.3,1.5,3.6,4.4,5.2,7.2h0c.2.3.7.9,1,1h.1c0,.1-.1.1-.2.1.2.4.5.5.7.5.2.2.7.6.5.8.3,1,.4,2.1.6,3.4.6.5,1.1.7,1.4,1.2h0l.3.3c.1.1.7.8.8.7.7,2.6,2.1,5.4,2.9,8.3,0,0,0,.1.1.2.3.6.4,1,.7,1.7.8.3,1.2.8,1.2,1.8.9,4.1,2.3,8.1,3.5,12.1-.9.9-1.9,2-1.3,2.9,2.7,3.9,1.5,8.3,1.7,12.5v.2Z"/>
  <path class="st7" d="M701.3,190.9c-.2.4-.2.3-.2.3-.2.2-.5.4-1,.8-.2,0-.4.3-.5.2-2.9.9-5.8.3-9.2.2-.9-.2-1.3-.2-2.1-.3-.3-.2-.6-.4-.9-.6h0c-1.5,1-2.4-.7-3.9-1.1,0,0,.3-.2.4-.2h0c-.2-.2-.4-.5-.9-.9-.8-.2-1.3-.3-2-.7-.2-.4-.5-.6-.7-.8,0,0,0,.1,0,.2-.6.2-1.2,0-1.9-.5,0-.1.3-.2.4-.3h0c-.2-.3-.5-.6-1.2-.9-.3-.1-.4,0-.4,0-.2-.1-.4-.2-.6-.4-.3.2-.8,0-1.2-.3.2-.1.4-.1.7,0h0l-.2-.2c-.2-.2-.3-.4-.5-.4h0c-.5.4-.9.4-1.6.4-.2.2-.5.4-.9.9h0c-.2.3-.5.4-.7.5-.2.8-.8,1.5-2.2,1.6-.2.2-.5.4-.9.9h0c-.2.3-.5.5-.9,1h0c-.3.3-.6.6-1.1.9h0s-.2.1-.3.2v-.2h0c-.3,0-.3.2-.4,0,0,0-.3,0-.4.1,0,.3-.2.6-.8,1,0-.2,0-.5.4-.8-.2.1-.3.3-.5.5l-.2.2s-.2.2-.3.2c0,.3-.2.6-.7.9,0-.2,0-.3,0-.4,0,0,0,0-.2.1-.2,0-.3.2-.4,0,0,0-.3,0-.4.1h0,0c0,.3-.3.6-1,1,0-.3.3-.6.9-.9-.3.1-.5.3-1,.6-.3.2-.4.3-.5.2,0,0-.3,0-.4.1,0,.6-.6,1.1-1.7,1.1v-.5h-.2l-.2.2c-1.4.9-3,.2-4.8.7-.3.2-.5.3-.6.3-.8.3-1.5.3-2.1.2.2.2.3.5.4.8-3.2,4.2-1.5,8.9-2,13.8h0c0,.2-.3.3-.5.3,0,.5,0,.9-.4,1.4,0,0,0-.1-.2-.2-5.6-.2-8.2-3-9-8.4h0c1.6.2,2.8,0,4.3,0s1-.1,1.4,0c2-1.7,3.8-3.7,3.3-7.3.4-.5,1-.8,1.5-.9-.7-.4-1.3-.9-2.1-1.5,0,0-.2-.2-.2-.2h0c-1-1-2.4-1.1-3.9-1.9-3.3-1.9-6.3-3.9-8.1-7-.3.5-1.2,1.3-3.3,2.6h-3.7c0,.3.2.6.3.8,1.3,1.2.3,3.2.5,5.3h0c0-.1,0,0,0,0,.2.8.3,1.3.2,2,0,.2-.2.4-.3.4,0,.1-.2.1-.4,0h0c-4.1.7-7.5-2.3-10-8.9,0-.3-.2-.5-.2-.6v-.5s.2,0,.2-.1c.2-.1.3-.1.3,0,.3-.1.6-.2,1-.3,1.8-1.6,4.2-.5,6.8,0-.3,0-.5.1-.8.2h.6c.5.2.5,0,.6.2.2,0,.4.2.6.3,0,0,.2.2.3.3,1.9-.9,5.8-2.5,5.6-2.5h1.7c-.3-.5-.5-1.1-.7-1.7-.6-1.3-.4-2.5-.4-4v-3.3c0-1.2,0-2.1.3-3.3.2-.4,0-.7.2-.9,0-.1,0-.2.2-.3h0c0,.1,0,0,0-.2v.2c-.2-.8,0-1.7.3-2.9,0,.3,0,.7,0,1.2,0-.4,0-.8.2-1.3.2-.3,0-.6.2-.7,0,0,0-.2.2-.3-.3-.8-.8-1.9.3-3,0,.1.2.2.2.3,0-.1,0-.3.2-.4.2-.4,0-.5,0-.5,0,0,0-.1,0-.2,0-.3.2-.6.5-1.1v.2c0-.1,0-.2.2-.3.2-.3,0-.6.2-.8,0,0,0-.2.2-.3-.3-.6-.3-1.4-.4-2.5.2,0,.4,0,.5.2,0-.2,0-.3,0-.5-.2-.3-.3-.4-.2-.5v-.3h0c-.7,0-1.2-.5-1.2-1.7h.6c0-.1,0-.3-.2-.4-2.8-3.1-4.8-6.2-5.1-10.6-1-3.3-.3-6.2-.2-9.6.2-.4,0-.6.2-.6,0,0,0-.2,0-.2,0-.3.2-.6.4-1v.3s0-.2.2-.3c0-.1.2-.1.2-.1-.2-.3,0-.6.5-1v.5c0-.1.3-.3.4-.5.2-.2.2,0,.2,0,0,0,.2-.1.4-.2,1.3-1.6,3.3-.4,5.2-.1h-.3.4c.4.2.3.2.3.2.2.2.4.5.9.9h0c.2.3.4.6.9,1h0c.2.3.4.6.9,1h0c.2.3.4.6.9,1,.2,0,0,.2.2,0,0,.1.2.2.3.4,0,.2.2.4.2.7s0,.5.2.7c.2.2.3.6.3.8.2.5.4.8.8,1.2s0,.2.2.1c.9,3.4,1.3,6.9,1.7,10.8.2.4.3.6.3.8,0,.5.3.8.8,1.3l.2.2c2.4,1.8,4.5.5,7-.8.3-.2.4-.3.5-.2q0,0,0,0c0-.6.6-1,1.7-.9v.4c.2,0,.4-.2.6-.3.2-.2.2-.1.2-.1.5-.4.6-1,.2-1.8-.2-.2,0-.2-.2-.2-.2-.2-.4-.5-.9-.9h0c-.2-.3-.4-.6-.9-1-.2-.1,0-.2-.2-.1,0-.1-.2-.3-.3-.5v.2c-1.2,0-2.2-.7-2-2.5h.7s0-.1-.2-.2c-.2-.3-.3-.5-.2-.6-1-3.3-.2-6.6-.2-10.3-.4-3.1,1.1-4.7,3-6.6s4.2-2.1,6.9-1.8c.4.2.3.2.3.2.2.2.4.5.9.9h0c.2.3.4.6.9,1,.2.2,0,.2.2,0,.2.2.5.5.8,1.1,0,.2.2.4.2.5.9,2.8.9,5.7,1.6,8.8,1-1.4,1.5-2.8,2.3-4.4v-.5c.2-.4.5-.8.9-1.3,1-1.9,1.8-3.6,3.7-4.9.6-.3.9-.5,1.3-1,.2-.2.2,0,.2-.2,1.3-.8,2.8-.4,4.6,0,.7,1.3,2.6.6,2.5,2.5,1.5,4.9-.9,9-1.9,13.8-.2.4,0,.5,0,.6-.2.4-.4.7-.8,1.2l-.2.2c-.3.3-.6.5-1.2,1-.5.7-.7,1.2-1,2-.3.4-.4.5-.7.9h0c-.6.5-.5,1.2-.9,2.2v.3c.9,1.9,2.4.9,3.7.6,3.1-.7,6.2-1.6,9.8-1.8.3-.2.7-.3.8-.3h.2c0-.6,0-1.4,1.1-.4,0,0,0,.2,0,.2h.3c.4.2.7.1.8.2,0,0,0,0,.2.1.4,0,1,0,1.5.4h-.3c.2,0,.4.1.6.2.2.1.2.2.2.1.2.2.4.5.9.9.2.2,0,.2.2.1,1.1,2.3,0,4.5-.9,7.1-.2.4,0,.5,0,.6-.2.4-.4.7-.8,1.2l-.2.2c-.3.2-.5.4-.9.9,0,.2-.2,0-.2.2-.3.2-.6.5-1.1.8-.3,0-.3.2-.4,0-.6.3-1.2.4-2,.7,0,0-.2.1-.3.2-.6.6-1,.8-1.7,1.1-2.6.1-4.9.8-7.2.4-3.5-.7-4,1.3-3.6,4.3.2.3.3.7.3.8,1.1,2.3.2,4.6.8,7.1.3.3.2.3.2.3,3.3,1.3,6.8,0,10.5.8.9.5,1.4.9,2.3,1.2,0,0,.3.1.4.2,1.3-.5,2.5-.1,3.6,1.5,0,0,.3.1.4.2.3.1.4,0,.5,0,.4.2.7.4,1.2.8l.2.2c.2.3.4.5.8.9.2,0,0,.2.2,0,.2.2.4.5.8,1,0,.2.3.4.2.6,0,.5.3.8.8,1.3l.2.2c1,1.9,0,3.6-.8,5.7v.7Z"/>
  <path class="st7" d="M648.7,212.6c-8.1.2-9.4-.8-10-7.6,0-.7.2-1,.7-1.1.8,5.4,3.4,8.2,9,8.4,0,0,0,.1.2.2h0Z"/>
  <path class="st7" d="M635.1,170.7v.3h0v-.3Z"/>
  <path class="st15" d="M440.2,382.9c0,.3,0,.6-.2.8,0,0,0-.1-.1-.2,0-.2.2-.4.3-.6h0Z"/>
  <path class="st15" d="M555,354.8h0c0,0,0,0,.2,0h-.2ZM656.2,373.3c.2.2,0,.5-.3.7,0-.2,0-.4.3-.7ZM441.8,372.6v.2h.1v-.4s0,.1-.1.2h0ZM570.2,484.7c-.4,0-.9-.2-1.3-.2,0,0,0,.2,0,.3h1.3,0Z"/>
  <path id="svg_83" class="st9" d="M676.4,485.6c-.5.3-.8.3-1.5.1-.4-5.4-.4-10.7-.2-16,0-1.5-.6-3.4,1.5-4.7.4,6.6.5,13.4.3,20.5h0Z"/>
  <path id="svg_155" class="st9" d="M376.5,481.6c1.1-.4,2.2-.5,3.7-.5.3.7.3,1.4,0,1.9-1,1.2-.2,4.2-2.3,3.8-2.1-.4-1.3-3-1.4-5.2h0Z"/>
  <path id="svg_285" class="st15" d="M725,287c-.4-1.9-.5-4-.5-6.5,2,1.6.8,4.1.5,6.5Z"/>
  <path id="svg_388" class="st2" d="M618.7,185.8c.2.3,0,.8,0,1-.9,0-1.8-.2-2.2-1.5.6-.2,1.2,0,2.1.4h.1Z"/>
  <path id="svg_390" class="st12" d="M745.2,395c.5,1.1-.2,1.7-1.4,2.2-.3-1-.6-2.2,1.4-2.2Z"/>
  <path class="st1" d="M635.1,170.7v.3h0v-.3Z"/>
  <path id="svg_412" class="st12" d="M694.3,448.4c-.2.4-.6.9-1.3,1.5.2-.4.6-.9,1.3-1.5Z"/>
  <path id="svg_419" class="st12" d="M703.4,435.2c0,.6,0,1.4-1.3,1.7.2-.5.6-1,1.3-1.7Z"/>
  <path id="svg_422" class="st12" d="M729.4,411.2c0,.7,0,1.4-1.4,1.8.2-.5.7-1,1.4-1.8Z"/>
  <path class="st1" d="M644.5,137.1c0-.3,0-.5-.2-.7.2.1.2.4.2.7Z"/>
  <path id="svg_441" class="st12" d="M748.2,390.2c.6.7.4,1.3-.5,1.9-.2-.6,0-1.2.5-1.9Z"/>
  <path id="svg_477" class="st2" d="M540.6,119.9c-.3,0-.6,0-1-.5.3,0,.6,0,1,.5Z"/>
  <path id="svg_481" class="st2" d="M546.6,124.9c-.3,0-.6,0-1-.5.3,0,.6,0,1,.5Z"/>
  <path id="svg_482" class="st2" d="M509.3,125.1c.1.3,0,.6-.5,1-.1-.3,0-.6.5-1Z"/>
  <path id="svg_492" class="st2" d="M487.3,145.1c.1.3,0,.6-.5,1-.1-.3,0-.6.5-1Z"/>
  <path id="svg_505" class="st2" d="M539.6,118.9c-.3,0-.6,0-1-.5.3,0,.6,0,1,.5Z"/>
  <path id="svg_515" class="st2" d="M510.3,124.1c.1.3,0,.6-.5,1-.1-.3,0-.6.5-1Z"/>
  <path id="svg_521" class="st2" d="M505.3,129.1c.1.3,0,.6-.5,1-.1-.3,0-.6.5-1Z"/>
  <path id="svg_524" class="st2" d="M554.6,131.9c-.3.1-.6,0-1-.5.3-.1.6,0,1,.5Z"/>
  <path id="svg_526" class="st2" d="M517.3,118.1c0,.3,0,.6-.5,1,0-.3,0-.6.5-1Z"/>
  <path id="svg_535" class="st2" d="M507.3,127.1c.1.3,0,.6-.5,1-.1-.3,0-.6.5-1Z"/>
  <path id="svg_540" class="st2" d="M508.3,126.1c.1.3,0,.6-.5,1-.1-.3,0-.6.5-1Z"/>
  <path id="svg_551" class="st2" d="M506.3,128.1c.1.3,0,.6-.5,1-.1-.3,0-.6.5-1Z"/>
  <path id="svg_553" class="st2" d="M497.3,136.1c.1.3,0,.6-.5,1-.1-.3,0-.6.5-1Z"/>
  <path id="svg_563" class="st2" d="M498.3,135.1c.1.3,0,.6-.5,1-.1-.3,0-.6.5-1Z"/>
  <path id="svg_565" class="st2" d="M559.6,135.9c-.3.1-.6,0-1-.5.3-.1.6,0,1,.5Z"/>
  <path id="svg_577" class="st2" d="M560.6,136.9c-.3.1-.6,0-1-.5.3-.1.6,0,1,.5Z"/>
  <path id="svg_590" class="st2" d="M568.6,143.9c-.3.1-.6,0-1-.5.3-.1.6,0,1,.5Z"/>
  <path id="svg_643" class="st2" d="M547.6,125.9c-.3,0-.6,0-1-.5.3,0,.6,0,1,.5Z"/>
  <path id="svg_652" class="st2" d="M374.3,244.1c.1.3,0,.6-.5,1-.1-.3,0-.6.5-1Z"/>
  <path id="svg_653" class="st2" d="M375.3,243.1c.1.3,0,.6-.5,1-.1-.3,0-.6.5-1Z"/>
  <path id="svg_654" class="st2" d="M376.3,242.1c.1.3,0,.6-.5,1-.1-.3,0-.6.5-1Z"/>
  <path id="svg_664" class="st2" d="M386.3,233.1c.1.3,0,.6-.5,1-.1-.3,0-.6.5-1Z"/>
  <path id="svg_665" class="st2" d="M387.3,232.1c.1.3,0,.6-.5,1-.1-.3,0-.6.5-1Z"/>
  <path id="svg_666" class="st2" d="M639.8,203.9c0,.3-.2.4-.8.6-.4-.1-.5-.4-.5-1.1.4-.2.7,0,1.2.4h0Z"/>
  <path id="svg_667" class="st2" d="M628.7,196.3c0-.2.3-.2.5-.2.2.2.3.4.4.8-.2,0-.5-.2-.8-.6h-.1Z"/>
  <path id="svg_672" class="st2" d="M368.3,249.1c.1.3,0,.6-.5,1-.1-.3,0-.6.5-1Z"/>
  <path id="svg_674" class="st2" d="M356.3,260.1c.1.3,0,.6-.5,1-.1-.3,0-.6.5-1Z"/>
  <path id="svg_676" class="st2" d="M357.3,259.1c.1.3,0,.6-.5,1-.1-.3,0-.6.5-1Z"/>
  <path id="svg_678" class="st2" d="M358.3,258.1c.1.3,0,.6-.5,1-.1-.3,0-.6.5-1Z"/>
  <path id="svg_679" class="st2" d="M366.3,251.1c.1.3,0,.6-.5,1-.1-.3,0-.6.5-1Z"/>
  <path id="svg_680" class="st2" d="M367.3,250.1c.1.3,0,.6-.5,1-.1-.3,0-.6.5-1Z"/>
  <path id="svg_682" class="st12" d="M757.9,473.2c0-.3,0-.6.5-1,.2.3,0,.6-.5,1Z"/>
  <path id="svg_683" class="st12" d="M756.9,474.2c0-.3,0-.6.5-1,.2.3,0,.6-.5,1Z"/>
  <path id="svg_684" class="st12" d="M755.9,475.2c0-.3,0-.7.5-1,.2.3,0,.6-.5,1Z"/>
  <path id="svg_685" class="st12" d="M754.8,476.4c0-.2,0-.7.5-1.2,0,.3,0,.6-.5,1.2Z"/>
  <path id="svg_686" class="st12" d="M753.9,478.2c-.2-.4,0-.8.4-1.2.2.4,0,.8-.4,1.2Z"/>
  <path id="svg_689" class="st2" d="M369.3,248.1c.1.3,0,.6-.5,1-.1-.3,0-.6.5-1Z"/>
  <path id="svg_753" class="st12" d="M766.6,330.9c-.3.1-.7,0-1-.5.3-.1.7,0,1,.5Z"/>
  <path id="svg_754" class="st12" d="M765.6,329.8c-.3.1-.7,0-1-.5.3-.1.7,0,1,.5Z"/>
  <path id="svg_755" class="st12" d="M764.6,328.9c-.3.1-.7,0-1-.5.3-.1.7,0,1,.5Z"/>
  <path id="svg_756" class="st12" d="M763.6,327.9c-.3.1-.6,0-1-.5.3-.1.6,0,1,.5Z"/>
  <path id="svg_757" class="st12" d="M810.9,351.2c-.2-.3,0-.7.4-1.1.2.3,0,.7-.4,1.1Z"/>
  <path id="svg_758" class="st12" d="M762.6,326.9c-.3.1-.7,0-1-.5.3-.1.7,0,1,.5Z"/>
  <path id="svg_759" class="st12" d="M761.6,325.8c-.3.2-.7,0-1-.4.4-.2.7,0,1,.4Z"/>
  <path id="svg_760" class="st12" d="M760.6,324.8c-.3.1-.7,0-1-.5.3-.1.7,0,1,.5Z"/>
  <path id="svg_762" class="st12" d="M797.3,319.1c0,.3,0,.6-.5,1,0-.3,0-.6.5-1Z"/>
  <path id="svg_763" class="st12" d="M798.3,318.1c0,.3,0,.7-.5,1-.2-.3,0-.6.5-1Z"/>
  <path id="svg_766" class="st12" d="M799.3,317.1c.2.3,0,.7-.5,1-.2-.3,0-.6.5-1Z"/>
  <path id="svg_768" class="st12" d="M800.3,316.1c0,.3,0,.7-.5,1-.2-.3,0-.6.5-1Z"/>
  <path id="svg_770" class="st12" d="M699.3,440.1c0,.3,0,.7-.5,1,0-.3,0-.6.5-1Z"/>
  <path id="svg_771" class="st12" d="M723.3,416.1c0,.3,0,.7-.6,1,0-.3,0-.6.6-1Z"/>
  <path id="svg_772" class="st12" d="M717.3,421.1c0,.3,0,.7-.5,1-.2-.3,0-.7.5-1Z"/>
  <path id="svg_773" class="st12" d="M716.3,422.1c0,.3,0,.6-.5,1,0-.3,0-.6.5-1Z"/>
  <path id="svg_774" class="st12" d="M709.3,428.1c.2.4,0,.7-.4,1.1-.2-.4,0-.7.4-1.1Z"/>
  <path id="svg_775" class="st2" d="M336.3,278.1c.1.3,0,.6-.5,1-.1-.3,0-.6.5-1Z"/>
  <path id="svg_776" class="st2" d="M337.3,277.1c.1.3,0,.6-.5,1-.1-.3,0-.6.5-1Z"/>
  <path id="svg_777" class="st2" d="M722.6,276.9c-.3.1-.6,0-1-.5.3-.1.6,0,1,.5Z"/>
  <path id="svg_779" class="st2" d="M339.3,275.1c.1.3,0,.6-.5,1-.1-.3,0-.6.5-1Z"/>
  <path id="svg_780" class="st12" d="M700.3,439.1c0,.3,0,.6-.5,1,0-.3,0-.6.5-1Z"/>
  <path id="svg_786" class="st2" d="M716.6,271.9c-.3.1-.6,0-1-.5.3-.1.6,0,1,.5Z"/>
  <path id="svg_787" class="st12" d="M695.4,446.5s-.3.1-.4.2c0,.1.3-.2.4-.2Z"/>
  <path id="svg_788" class="st2" d="M715.6,270.9c-.3.1-.6,0-1-.5.3-.1.6,0,1,.5Z"/>
  <path id="svg_789" class="st2" d="M346.3,269.1c.1.3,0,.6-.5,1-.1-.3,0-.6.5-1Z"/>
  <path id="svg_790" class="st12" d="M740.3,401.1c0,.3,0,.6-.5,1,0-.3,0-.6.5-1Z"/>
  <path id="svg_792" class="st12" d="M743.3,397.1c.2.4,0,.8-.4,1.1-.2-.4,0-.7.4-1.1Z"/>
  <path id="svg_795" class="st12" d="M742.2,398.1c.2.4,0,.8-.3,1.2-.2-.4,0-.8.3-1.2Z"/>
  <path id="svg_798" class="st12" d="M741.4,399.9c0,.2,0,.6-.5,1.2,0-.2,0-.6.5-1.2Z"/>
  <path id="svg_800" class="st12" d="M739.3,402.2c0,.3,0,.6-.6,1,0-.3,0-.6.6-1Z"/>
  <path id="svg_801" class="st2" d="M723.9,288.2c0-.3,0-.6.5-1,0,.3,0,.6-.5,1Z"/>
  <path id="svg_804" class="st12" d="M733.3,407.1c.2.4,0,.8-.4,1.1-.2-.4,0-.7.4-1.1Z"/>
  <path id="svg_805" class="st12" d="M732.3,408.1c.2.4,0,.8-.4,1.1-.2-.4,0-.7.4-1.1Z"/>
  <path id="svg_806" class="st12" d="M731.3,409.1c0,.3,0,.7-.6,1.1-.2-.4,0-.7.6-1.1Z"/>
  <path id="svg_809" class="st2" d="M447.3,180.1c.1.3,0,.6-.5,1-.1-.3,0-.6.5-1Z"/>
  <path id="svg_823" class="st2" d="M596.6,167.9c-.3.1-.6,0-1-.5.3-.1.6,0,1,.5Z"/>
  <path id="svg_908" class="st2" d="M616.6,184.9c-.3.1-.6,0-1-.5.3-.1.6,0,1,.5Z"/>
  <path class="st15" d="M480.9,179.1c0-.2.2-.3.3-.5.8-.5,1.7-1,2.1-2.2.3,1.5,0,2.8-2.4,2.7Z"/>
  <path class="st15" d="M397.1,307.7c-.2-.1-.3-.2-.4-.3-.5-6.1,1.1-12.1-2-17.6-.4-.6-.7-1.3-1.3-2.1,3.8,1.6,3.6,5.7,4.2,9,.6,3.5,0,7.2-.4,11.1h-.1Z"/>
  <path class="st15" d="M555.1,354.8h0c0,0,0,0,.2,0h-.2Z"/>
  <path class="st15" d="M655.8,374c0-.2,0-.4.3-.7.2.2,0,.5-.3.7Z"/>
  <path class="st15" d="M397.1,307.7c-.2-.1-.3-.2-.4-.3-1.4-1.3-.8-3.2-.8-4.9.2-5.2-.4-10.1-3-15,.1,0,.3.1.4.2,3.8,1.6,3.6,5.7,4.2,9,.6,3.5,0,7.2-.4,11.1h0Z"/>
  <path id="svg_916" class="st9" d="M676.1,295.5c.3,9.7.3,19.7.2,30.2-1.5-9.6-.7-19.8-.2-30.2Z"/>
  <path id="svg_918" class="st9" d="M676.1,355.5c.3,2.4.3,5.1.3,8.2-1.3-2.3-.8-5.1-.3-8.2Z"/>
  <path class="st15" d="M480.9,179.1c0-.2.2-.3.3-.5.5-.8,1.2-1.5,2.1-2.4h0c.3,1.6,0,2.9-2.4,2.8h0Z"/>
  <path class="st15" d="M655.8,374c0-.2,0-.4.3-.7.2.2,0,.5-.3.7Z"/>
  <path class="st15" d="M441.3,372.7c0,.9-.3,1.9-.6,3.1h0c-.9-1.1-.4-2,.7-3.1h-.1Z"/>
  <path class="st15" d="M569.5,485h-.9.9Z"/>
  <path class="st15" d="M440.2,382.9c0,.3,0,.6-.2.8,0,0,0-.1-.1-.2,0-.2.2-.4.3-.6h0Z"/>
  <path class="st15" d="M441.3,372.7c0,.9-.3,1.9-.6,3.1h0c-.9-1.1-.4-2,.7-3.1h-.1Z"/>
  <path id="svg_928" class="st15" d="M.6,1.1h0Z"/>
  <path id="svg_931" class="st15" d="M.6,1.1h0Z"/>
  <path class="st8" d="M558.2,364.7h0Z"/>
  <path class="st15" d="M555.1,354.8h0c0,0,0,0,.2,0h-.2Z"/>
  <path class="st15" d="M555.1,354.8h0c0,0,0,0,.2,0h-.2Z"/>
  <path class="st8" d="M584.6,277.2c-1,3.5.8,7-2,10.1-.3.6-.4.9-.5,1.5-2.5,6.7-6.4,11.8-10.8,17.3-.9,3.3-3.6,4.4-6,6.2-7.3,6.9-18,11.1-27.8,12.9-.8.8-1.1,1.5-1.2,2.4-.8,7.4-.5,7.7,6.9,8,4,1.6,13.9-.7,11.4,6.6-3.6,9.7-17.7-.4-18,9.4-.2,11.7,26.6-3.4,21.8,12.7-.2.2-.2.3-.2.3-2.9,3.8-14.7,1.6-19.6,2.1-3.7,2.6-2.4,6.1-2.2,9.3,1.3,4.5,15-2,17.5,5.3,0,2.4.4,4.3-1.7,6-1.9,2.3-5.7,1.2-8.5,1.9-12.3,1.2-24.2.7-36.1.5-3.2,0-6.1-.3-6.5-4.4-.4-9.8,11.9-8.3,18.6-8.3,4,.9,6.4-3.2,5.3-6.8-2.8-4.2-14,.3-19.2-3-4.4-4-2.8-5.8,2.4-9,2.9.5,5.1-1,7.8-1.4h7.4c1.1-.1,1.8-.4,1.9-1.6,2-11.6-6.8-6.3-14.1-8.1-2.8-1.1-6.5-2.1-6.1-5.9,3.1-8.8,14.2-3.2,21.3-5.8,3.9-22.8-11.1,3.1-41.6-35.2,0-1.6-.4-2.8-1.8-3.8-2.9-1.6-2.4-4.9-4.2-7.2-9.5-32.5,7.5-68.8,43.2-73.7,3.1-.3,5.9-3.2,9.1-1.3,3.8.9,7.6-.6,11,1.8,2.5,1,5.1-.2,7.1,2.1,3.1,1.2,6.5.8,8.9,3.5,3.7,4.6,12.3,4.6,12.3,11.6.3.2.6.4.9.7v.8c.9-.7,2,1.4,2.7,1.9,1.5,1,2.3,2.7,3.2,4.2,1.2.7.9,2.8,1.7,3.8,1.9.8,1.2,3.3,2.3,4.8,4.4,5.8,2.8,15,3.1,21.8,1.2,2.1,1.6,3.8.3,6.1h0Z"/>
  <path class="st0" d="M563.1,290.9c-.6,1.6-2.2,2.3-3.4,3.3,0,2.5-4.1,2.6-5.8,3.9-1.2,1.4-5.6,2-4.8-.6,4.2-9-5.2-13.5-9.6-19.7h0c-3-2.4-6.2-3.4-9.8-4.8v-.3c-2.5,0-4.9-.3-7.3.2,0,0,0-.1.2-.2-2.7.6-5.5.3-6.6,3-1.9,1.6-3.6,3.1-5.4,4.7-.3,0-.5,0-.7.1h0c-.7.3-1.2,1-1,1.6,0,.6,0,1.1-.5,1.4h-.5v-.2c-1.1.4-1.3,1-1,1.6v.4h0s-.1,0-.2.1h0c-.6.5-.9,1-1.1,1.6,0,0,.2.2.3.2h0c0,.3.2.8.4.8-.1,2-.3,3.6-.5,5.6-.2.1-.3.3-.4.4,3.7,5.4,8.6,7.6,14.9,7.1,8.5-.6,17.1,1.7,25.5-.9,1.7-.5,2.1.5,1,2.2-1.2,1.7-2.6,2.4-4.7,2.4-11.3-2.8-22.8,2.6-33.3-2-2.4-1.4-5.1-2.4-6.3-5.5.1-.2.3-.4.4-.6-.3-.2-.6-.3-.9-.4-.2-.2-.3-.4-.3-1h.2c-.6-.4-.9-.8-1.3-1.2,0-1.1-.1-1.9-1-2.4-.4.2-.4,0-.5,0-.1-.2-.2-.5-.3-.7-2.3-.3-2.4-2.5-3.9-4-1.2-.8-1.7-1.9-2.1-3.2-1.6-1.4-1.4-4.7-2.8-6.6-2-1.3-1.3-3-1.4-4.9.7-3.5-.9-8,.9-11.1,3.2-3.6,6-9.4,11.7-6.3,4,2.2,6.5,3.2,7.8,7.6,2.2,4.6,4.8,1.6,7.3.5,3.1-1.4,2.8-3,.6-5.1-2.5-1.8-2-5.6-2.5-8.5-1.4-3-.8-5.4,1.1-8,1.9-.9,1.4-3.3,3.5-4,6.5-1.8,9.2-2.6,14,3.7,2.2.2,2.2,4.8,5.5,2.2,5.6-6.6,14-2.1,14,5.9s-2.5,5.4-3.1,8c0,1.4-1.1,2.1-2,2.7-.2,1.9-2.2,2-3.3,3.1-6.1,5.5,7.2,13.4,8.8-.6-.2-1.3-.2-2.3.8-3.2,2.5-2.2,4.7-6.9,8.6-4.3,3.7,3.4,8.4,6.6,8.3,11.8,2,9.1.9,20.2-7.3,24.1h-.2Z"/>
  <path class="st10" d="M654.5,376.4c.2-1.9.4-3.6.5-5,0,2.4-.2,6.4-.5,5Z"/>
  <path class="st10" d="M655.1,370.1v1.2c0-1.2,0-2,0-1.2Z"/>
  <path class="st10" d="M725.1,286.7l-.2.4c-.2.2-.5.4-.9.9h0c-3.5,3.8-7.8,5.1-12.9,5-9.3-.2-18.5,0-27.8,0s-4.1-.6-5.6,1.9c-1.2,10.4-.7,20.5-.4,30.9.2,9.4,0,18.4.2,27.9-.7,3.8-.7,7.1,0,10.9,0,33.3.2,66.1-.3,99.3h-.4c-.2.5-.2.7-.2.9-1.8,4.1-.6,8.3-.9,12.4-.2,2.8.5,5.7-.8,8.8-6,.8-11.7.5-17.9.3-2.3-2.6-1.8-5.6-1.8-8.3v-108c.2-4.2,0-6.7.2-9.6v-30c.3-12.5.5-24.7,0-36.8-.6-14.8,9.7-20.8,20.8-21.8,1.6-.1,3.3,0,5.3-.4-4.6-5.8-10-10.1-15.3-14.5-17.7-14.8-34.8-30.4-52.4-45.5-18.6-15.9-36.9-32.1-55.4-48-8.3-7.1-16.5-14.4-24.9-21.6-4.5-3.9-5.3-4.1-9.7-.2-9.9,8.6-19.7,17.4-29.5,26.2-3,2.7-6.1,5.2-9.2,8.2-1.1,1.1-2,1.9-3.1,3-.5.4-.6.5-1.1.9-13.9,12.4-28,24-41.7,36-14,12.2-27.6,24.9-41.7,37.1-8.8,7.6-17.2,15.6-26.2,23-.6.5-1.3,1.1-1.5,2.6,8.8.4,18,0,24.3,8.6,3,4.9,3.5,9.9,3.2,15-.1,1.8-.2,3.6.6,5.8.7,3.6.5,6.9.5,10.6s0,1.7,0,2.8c-.7,4.1-.7,7.7-.7,11.4v143c0-1.5,0-12.9-.3-10.9-1.1,4.4-5.4,4.3-8,6.9l-.2.2h0c-3.4,2.1-6.6,4.2-7.8,8.8l-.2.3c-1,.8-2.1,1-3.7.3l-.4-.2c-.8-1.8-.4-3.6-.4-5.4v-95c0-27.3,0-54-.3-81.2-.3-.4-.2-.4-.2-.4-7.6-1.3-15.4-.2-23.5-.5-2.6.1-4.8,0-7.4-.2-1.5.2-2.5.2-3.9,0l-.3-.2c-3.5-1.8-6.8-3.7-8.4-8-.7-1.5-.6-2.7-.3-4.3.8-2.5,2.4-4.1,3.5-6.5.2-.3.2-.2.2-.3.2-.2.5-.4.9-.9h.1c.2-.3.5-.5.9-1h.1c.2-.3.5-.5.9-1h.1c.2-.3.5-.5.9-1,0-.1.1-.1.1-.1,2.3-1,3.9-2.8,5.8-4.8l.2-.2c.2-.2.5-.4.9-.9.1-.2.1,0,.1,0,3.6-1.7,5.8-5,8.8-7.8.2-.3.2-.2.2-.2.2-.2.5-.4.9-.9.1-.2.1,0,.1,0,.2-.2.5-.4.9-.9h.1c.2-.2.5-.4.9-.9,0-.1.1-.1.1-.1,2.7-1.2,4.5-3.5,6.8-5.8.2-.3.2-.2.2-.2.2-.2.5-.4.9-.9h.1c.2-.3.5-.5.9-1h.1c.2-.3.5-.5.9-1h.1c.2-.3.5-.5.9-1,0-.1.1-.1.1-.1,1.3-.7,2.6-1.4,3.8-2.8l.2-.2c.2-.2.5-.4.9-.9h.1c.2-.2.5-.4.9-.9h.1c.2-.3.5-.5.9-1h.1c.8-.7,1.8-.9,2.7-1.9.2-.2.2-.3.3-.3,2-1.7,3.8-3.6,5.8-5.7l.2-.2c.2-.2.5-.4.9-.9h.1c.2-.3.5-.5.9-1,0-.1.1-.1.1-.1,1.8-.8,3.3-2.1,4.8-3.8l.2-.2c3.2-1.4,5.2-4.2,7.8-6.8.2-.3.2-.2.2-.2,2.8-1.8,5.4-4,7.8-6.8.2-.3.2-.2.2-.2,5.1-3.2,8.8-7.9,13.8-11.8.2-.3.2-.2.2-.2,3.2-1.4,5.2-4.2,7.8-6.8.2-.3.2-.2.2-.2,5.5-4.1,10.7-8.6,15.8-13.8.2-.3.2-.2.2-.2.2-.2.5-.4.9-.9h.1c1.8-.8,3.3-2.1,4.8-3.8l.2-.2c6.3-4.7,12.1-9.9,17.8-15.8.2-.3.2-.2.2-.2,4.9-3.4,9.4-7.3,13.8-11.8.2-.3.2-.2.2-.2.6-.5,1.1-1.1,1.8-1.8l.2-.2c.2-.2.5-.4.9-.9h.1c3.3-2.1,5.9-4.9,8.8-7.9.2-.3.2-.2.2-.2.2-.2.5-.4.9-.9h.1c.2-.2.5-.4.9-.9,0-.1.1-.1.1-.1,2.3-1,3.9-2.8,5.8-4.8l.2-.2c.2-.2.5-.4.9-.9h.1c.2-.2.5-.4.9-.9h.1c.2-.2.5-.4.9-.9h.1c.2-.3.5-.5.9-1h.1c.2-.3.5-.5.9-1h.1c.2-.3.5-.5.9-1,.1-.2.2,0,.1-.2,2.3-1,3.9-2.8,5.8-4.8l.2-.2c.2-.2.5-.4.9-.9.2-.2.2,0,0-.2,6.7-4.7,13.5-4.3,20.7-.2l.3.2c.2.2.4.5.9.9h0c.2.3.4.6.9,1h0c1.3,1.5,2.6,3,4.8,3.9.3.2.2.2.2.2.2.2.4.5.9.9h0c.2.3.4.6.9,1h0c1.7,1.8,3.1,3.8,5.8,4.9.3.2.2.2.2.2.2.2.4.5.9.9.2,0,0,0,0,0,1,1.1,2.1,2.1,3.8,2.8.3.2.2.2.2.2.2.2.4.5.9.9q0,0,0,.1c.2.2.4.5.9.9.2,0,0,0,0,0,2.1,2,3.7,4.5,6.8,5.8.3.2.2.2.2.2.2.2.4.5.9.9.2,0,0,0,0,0,2.8,2.6,5,5.9,8.8,7.8.3.2.2.2.2.2,5.5,5.2,11.2,10.3,17.8,14.8.3.2.2.2.2.2.2.2.4.5.9.9.2,0,0,0,0,0,4.3,4.8,9.2,8.9,14.8,12.8.3.2.2.2.2.2,1,1.1,2.1,2.1,3.8,2.8.3.2.2.2.2.2.2.2.4.5.9.9.2,0,0,0,0,0,0,0,0,.2.2.2.4.5.8.8,1.5,1.3,0,0,0,0,.2.2,0,0,.2.2.3.2,1.4,1.4,2.1,3,2.5,4.5.9,3.2,3,4.4,6.6,4.1.5.2.8.4,1.1.7,0,.2.3.3.4.6.2.3,0,.2.2.2,2.6,2.2,5.5,4,8.8,5.8.3.2.2.2.2.2,0,.2.2.4.5.9h0c.8,5.4,3.4,8.2,9,8.4,0,0,0,.1.2.2h0c3.9,4,7.1,8.2,11.9,11.2.3.2.2.2.2.2,2.4,2.3,4.6,4.9,7.8,6.8.3.2.2.2.2.2,1.3,1.4,2.6,2.9,4.8,3.8.3.2.2.2.2.2.2.2.4.5.9.9h0c2.4,2.4,4.3,5.3,7.8,6.9.3.2.2.2.2.2,1.3,1.4,2.6,3,4.8,3.8.3.2.2.2.2.2.2.2.4.5.9.9,0,0,0,0,0,.1.2.2.4.5.9.9.2,0,0,0,0,0,3.6,3.5,7.2,7,11.8,9.8.3.2.2.2.2.2.2.2.4.5.9.9,0,0,0,0,0,.1,1.7,1.7,3.1,3.7,5.8,4.8.3.2.2.2.2.2.2.2.4.5.9.9.2,0,0,0,0,0,1.3,1.4,2.6,3,4.8,3.8.3.2.2.2.2.2.2.2.4.5.9.9,0,0,0,0,0,.1.2.2.4.5.9.9.2,0,0,0,0,0,1.3,1.4,2.6,3,4.8,3.8.3.2.2.2.2.2.2.2.4.5.9.9.2,0,0,.2.2,0,.6.8.8,1.9,1.8,2.8l.2.2c.9,2,.3,4.2.2,6.7l.3.2Z"/>
  <path class="st15" d="M562.5,483.2c.5,0,1,.2,1.4.3l-1.4-.3Z"/>
  <path class="st15" d="M685.2,272.8c-13.7-1.2-28.7,3.3-27.8,20.1.7,15-.5,30.2,0,45.5,0-.1-.2-.3-.3-.3.2,1.8.3,3.2.3,5.1-.2.2-.5.4-.7.6h.2c.5,2.7.5,5.4.5,8.5-1.2,1.6,3.4,42.5,2.3,41.7-2.6,6.6-39.1,87.2-35.9,91.7-1.7-1.5-3.7-.9-5.4-.9-16.6-.5-33.6.7-50.4-.6h0c0,.3.2.6.4.9-3.6,0-8,1.3-7.8-2.3-11.9-2.2-24.5-4.6-36.5-6.8-4-.8-8.4-1.6-12.4-2.3-4.2-1-9.9-.9-13.4-3.2-15.6-7.8-29.5,2.8-38.7,11.1-1.9,1.8-2,1.5-5.7,1.8-2.3.2-2.1.4-1.9.6-.7,0-.3,3.6-1.2-.9-1.4-29.9-8.9-92.2-10.2-99.1,0,0,.2-.3.2-.4v.2c.2-.2.2-.5.2-.8-.1.2-.3.4-.3.6-2-3.7-4-7.8,1.3-11.2h0s0,.1-.1.2v.2c-1,1-1.5,1.9-.6,3,.3-1.1.6-2.1.6-3h.1v-.4c15.8-16.3,26-26.9,20.8-51.3-8.8-8.2-16-6.3-27.2-7.6-13.5-2-24.1-.8-35.7,6-.8.2-1.3.3-2.2,0-.5-4-.3-7.8-.5-12,0,0,.2.2.4.3.4-6.6,2.5-16.1-3.8-20.1-6.1-6.5-13.8-7.9-22-7.6-1.4.1-3.4.9-4.1-.7-.8-1.7,1.2-2.6,2.2-3.5,36.9-32.5,73-65.1,110.7-96.8,0,.1-.2.2-.2.3,0-.1.5-.5.5-.5.2-.2.4-.3.6-.4-.1.2-.3.3-.3.5,2.6.1,2.6-1.3,2.4-2.9,13.7-13.1,27.5-24.8,41.6-37.4,2.7-2.5,4.7-1.7,6.9.2,49.3,43.1,99.2,85.2,148,128.9l1-.3c1.4,1.4,3.1,2.5,4.2,5.3h0Z"/>
  <path class="st15" d="M502.2,472.3c1.3.3,2.8.5,4.4.6-.2.7-.8,1.4-1.9,2.2-1.2-.8-2.1-1.6-3.1-2.7.2,0,.4,0,.6-.1Z"/>
  <path class="st15" d="M568.2,484.3h-.3.3Z"/>
  <path id="svg_16" class="st16" d="M509.6,485.7c-1.9-.9-1.1-2.3-1.4-3.7-.6-8-1.8-14.8-10.2-18.8-3.6-1.7-5.9-2.9-8.3-7.1s-2.8-8.4-5.6-7.5c-2.8.8-3.3,1.5-5,1.6-1.8.1-3.1-.5-2-4.1s-1.3-1.2-.2-5.5c.6-2.1,2.4-2.8,3.7-2.6,1.3.2,2.5.1,2.9-3.3.7-6.9,3.6-14.4,3-23.2s-2.5-8.7.5-10.4c3.2-1.8,6.8,1.5,9.3,5.5,2.5,4.1,7.6,5.2,13.6,5.7,6,.4,5.3-.3,7.9.5,2.8.8,4.5-.3,5.5-3.3.3-.6.5-.9.9-1.4,1.6-1.3,2.7-2.6,3.8-3.8,1.4-1.4,4.8-5.7,7-4.9,2.2.8,1.8,6,1.9,8.1,0,1.5.5,4.9-.6,6.5-.5.8,3.1,15.1,3,18.4,0,4.7,14,1.7,7.5,6.1-3.3,2.2,3.8,7.3,1,8.8-2.7,1.5-7.9-.9-9.5.1-3.3,2,3.6,4.2,10,10.9s13.8,14.5,16.2,20.3c4.8,11.5.6,1.9,1,2.5.5,2,4.8,5-.8,5s-36.4.1-54.8-.2h0l-.3-.2h0Z"/>
  <path id="svg_911" class="st7" d="M656.7,485.3c-10.8.5-21.5.6-32.8.6-2-2.5-1.8-5.2-1.5-7.8,1.3-9.7,1.5-19.6,2.7-29.3.5-4.4-.2-8.7-1.3-12.9-1.5-5.6-6-8.2-11.2-9.4-9.3-2.2-18.2-5.3-26.7-9.6-10-5.1-16.3-12.9-18.9-23.8-1.7-7.4.7-11.1,8.3-12.1,2.7-.4,5.3-.2,8.4-.2s1.5.1,2.4.3c2,.7,3.8.8,5.9.8s1.3.1,2.1.3c2.4.6,4.4,1.3,6.7-.2,1-.9,1.8-1.6,2.9-2.4,1-.5,1.6-1,1.9-2.1.9-2.3,2-4.1,4-5.8,1-.6,1.7-1,2.4-1.9,1.1-1.7,2-3.2,3.8-4.3,1-.6,1.7-1,2.5-1.9,1.7-1.5,3.1-3.1,5.5-3.6,1-.2,1.7-.3,2.6-.6.8-.2,1.2-.3,2-.5,1-.2,1.7-.4,2.8-.7,2.8-.5,5.3-.5,8.2-.1,1.3.4,2,1,3.1,1.7.5.3.7.4,1.1.7.9.8,1.5,1.4,2.5,2.1,1.8,1.4,3.6,2.4,5.1,4.2,1,2.6,2.6,4.5,3.7,7.1,2.2,2,1.8,4.5,1.8,6.8v104.6h0Z"/>
  <path class="st14" d="M754,548.6l-.3-.3c-1.3-12.6-10-23.2-19.5-31.2-17.1-10.5-32-14.5-51.6-5.9v.2c-2.6,1-4,1.8-5.9,3.7v.2c-1.4,2.2-4,2.5-4.3-.1-1.4-6.7-4.7-10.1-12.8-8.9-4.4,0-9.8,3.5-10.7,8.4-.3,37.1-.2,73.8-.2,110.5-1.4,13.7,20.1,17.3,25.4,6.2,5.5-5.9,2.4-23.2,3.4-31.4,1.7,3.7,9.3,5.8,13.7,6.3,38.1,7.7,67.7-19.3,62.7-57.6ZM718.6,575h0c-42.9,34.2-67.1-50.3-14.2-43.4,19.3,1.4,31.2,30.2,14.1,43.4Z"/>
  <path class="st14" d="M635.3,545.8c-.6-4.1-3.1-8.7-6.1-13.7-2.4-3.7-4.5-6.7-7.8-9.1-.4-.3-.5-.5-.9-.7-16.4-15.9-42.5-19.4-62.7-9.1-10.1,5.1-18.6,13.6-23.2,23.9-9.3,20.8-4.7,48.2,13,62.9,20.8,17.5,54.9,16.2,73.7-3.4,13.9-12.9,15.5-28,14-50.7v-.2ZM597.5,581.1c-15.5,7.8-34,3-41.1-13-13.4-29.2,31.5-53,49.5-22.3,7.1,12.2,5.3,27.5-8.2,35.2h-.2Z"/>
  <path class="st18" d="M894.9,565.7c-2.6-10.5-4.7-22.2-10.7-31.2-1.9-2.5-2.2-5.5-4.1-8-1.1-1.7-1.5-3.8-2.9-5.3-.5-.6-1-1.1-1.5-1.8-.8-1.2-1.5-2.4-2.6-3.3-2.6-2.3-4.8-5.1-7.3-7.4-5.3-3.9-12.9-4.3-19-2.9-6.3,1.4-10.8,6.3-15.3,10.5-2.3,2.1-5.1,3.9-7.1,6.1-.3.3-.8.8-1,1-2.6,2.9-5.6,5.5-8,8.6-14.8,20.3-22.4,52.2-6.7,74.1,1.2,1.3,2.6,2,4.1,2.9,1.3.7,2.5,1.8,3.8,2.4,3.5,1.1,7.2,2.1,10.9,2.4,2.4.3,4.8-.5,7.2-.8,4.1-.5,8.3-2,12.4-3,1.6-.8,3.1-1.8,4.9-2.2,1.7-.7,3.1-1.9,4.6-2.9,3.1-1.2,5.9-2.9,8.8-5.4,1.9-1.4,4.9-4,5.5-.3,1.1,4.2,2.2,9.6,6.5,11.5,6.7,4,14.3,2.5,18-4.6,6-11.9.7-28.4-.5-40.1v-.4ZM871.8,557.7c-.6,8.7-3.6,16.7-8.3,23.1-4.9,6.8-12.1,12.4-20,15.8-49.9,13.4-3.8-89.6,24.6-53,2.7,3.5,3.8,8.6,3.6,13.9v.2Z"/>
  <path class="st15" d="M377,577.7c-.2-.8-.8-1.7-1.3-2.1-5.5-5.4-15.1-2.8-20.2,2.1-2.1,2.1-3.9,3.9-6.4,5.6-5.6,5.3-13.2,7.6-20.2,4.2-7.7-3.4-11.5-11.6-11-19.8,0-3.3-.3-6.9,3.6-6.6,12.1.9,26.5,4.2,37.6-2.6,1.1-.7,2.2-1.6,3-2.4,2.5-2.5,5.3-5.1,5.3-8.9.6-10.9.4-23.4-8.1-31.1-3.2-3.4-7.2-6.2-11.7-7.7-14-4.5-29.6.8-40.3,10.1-1.5,1.4-2.9,2.9-4.2,4.2-.7.7-1.1,1.2-1.6,1.9-1.5,2.4-3.1,4.7-4.7,6.9-2.4,3.8-4.2,7.9-5.4,12.2-4.6,16.5-2,35.8,7.9,49.8,1.1,1.3,2.1,3,3.2,4.3,1.3,1.4,2.5,2.5,3.8,3.7,3.1,2.5,6.3,5.2,9.7,7.2,16.4,6.4,37.4,4.8,51.1-6.9,7.4-6.4,12.7-13.9,9.9-24.1v-.2ZM329.6,532.7c7.1-10.4,24.7.9,17.6,11.7-8.2,12.6-24.8.8-17.7-11.5v-.2Z"/>
  <path id="svg_12" class="st17" d="M402.5,606.1c-13.1-22.1-9.2-47.4-9.6-72,.5-8.7-12.3-1.2-15.5-11-3-3.2-1.1-7.9-.2-11.8,3-5.6,9.5-5.8,14.9-7,.3-.3.3-.2.3-.2,1.7-6.1-.7-12,2-18,3.3-6.6,12.8-6.4,19-3,1.4,1,1.6,2.8,3,4,1,5.4.2,10.9.8,16.7.3.4.2.3.2.3,7.9,2.4,18.1-2.1,25.1,3.3,11.6,6.9,6.2,22.4-6.6,22.2h-15c-2.9,0-4.5,1-4.5,4,.7,16.1-1.6,32.9,1,48.6.6,1.6,2.9,1.8,4.1,3,1.3,1.3,2.7,2.7,4,4,1.4,1,1.6,2.8,3,4,.4,2.3,2.5,5.1,1.9,7.6,0,0,.3,1.3.1,1.4-.9.6-.2,2.2-1,3-1.5,1.8-2.9,4.6-4.9,6.1-7.5.6-17.3,2.6-21.8-5h0l-.3-.2Z"/>
  <path id="svg_13" class="st5" d="M522.4,527.9c-7.9,3.1-16.2,1.1-24.6,2-.4.3-.4.2-.3.2-1.5,15.5-.1,31.5-.3,47.6.7,1.5.8,3.2,2.3,4.3,1.5,1.6,2.9,3,5,4,1.3,1.3,2.7,2.7,4,4,4.4,4.5,3.6,11.4,1,17.2-4.3,6.1-13.9,4.7-19,0-2.6-2.1-4.9-4.6-7.1-7-.1,0-.7-.9-1.1-1-14.4-20-7.8-46-10.1-69-4.3-1.2-9.5-.7-13-4.2-7.3-11.5,0-22.2,13.1-22.2,1.6-7.3-1.4-16.7,5.9-22,5.8-3.4,11.1-2.1,16.1,2,.1,0,.7.9,1.1,1,2.7,5.9.7,12.9,2,19,9.2,3.5,22-2.9,29.1,7,2.6,5.2,1.3,12-3,16.1-.3.2-.5.5-1.1.8h0v.2h0Z"/>
  <path id="svg_14" class="st13" d="M523.1,753c-5.4,2.2-10.5,4.2-15.6,5.9-10.1,3.4-20.6-3.6-22.1-13.4-1-3.1-.3-5.9-.2-9.1,1.8-8.6,8.9-13.2,13-19.8,3-4.8,7.5-8.3,11-12.6,5.6-6.9,20.2-9.1,28.4-5.3,6.3,3,10.5,8.5,15.2,13.3,3.8,4,6.7,8.8,10.2,13.1,3,3.7,5,7.7,6.3,12.5,1,2.4.3,4.6.2,7.1-1.5,7.8-7,13.2-14.8,14.4-1.7.7-3.2.3-5,.2-6.4,0-13-5.3-16.4-6.2s-6.7-.3-10.3-.2h0Z"/>
  <path id="svg_15" class="st13" d="M399.6,745.8c-3.6,11.7-13.6,16.1-24.8,11.8-3.4-1.3-6.7-2.7-10.1-3.9-5.5-1.8-10.5-1.1-15.7,1.1-5.8,2.5-11.5,5.5-18.3,4.6-7.2-.9-11.8-4.7-14.3-11.6-.9-3.9-.3-7.5-.2-11.5,3.5-9.7,10.5-16.3,16.3-23.8,4.1-5.4,8.6-10.4,14.9-13.3,9.1-4.2,18.2-2.9,25.1,3,10.9,9.3,26.1,29.9,26.9,33.5s.3,6.6.2,10.1h0Z"/>
  <path id="svg_20" class="st5" d="M766.1,606.2c-3.6-6.6-1.7-14.6-1.9-21.9-.3-20.6-.5-40.7.5-61.2.4-5.1,1.3-11.1,6.1-13.3,5.3-2.4,14.9-.4,16.9,6.2,1.2,3.4,1.2,7.4,1.2,11.1-.6,24.6,1.8,49.5-.5,73.8-.4,3.7-1.7,7.7-5,9.7-5.6,3.5-13.8,1.5-17.1-4.1v-.2Z"/>
  <path id="svg_21" class="st3" d="M661.7,736c-8-.2-14.2-2.5-18.2-9.8-1.1-3.8-.4-7.3-.3-11.2,2.4-6.2,6.6-10.7,10-15.6,1.9-2.8,5.2-4,8.9-4.5,2.7-1,5.1-.3,7.8-.2,9.5,2.2,12.7,9.7,15.3,17.2,1.2,3.5,4.1,6.6,2.8,11.2-2.4,8.1-7.7,12-16.1,12.9-3.5,1-6.6.3-10.1.2h0v-.2h-.1Z"/>
  <path id="svg_22" class="st3" d="M556.1,641.9c6.7,3.1,9,8.2,9.4,14.9.7,10.6-3.9,19.2-9.8,27.2-1.8,2.5-5.4,4-7.8,4.5-2.4.5-4,0-6.2-.3-5.7-.9-7.3-4.9-8.4-9.6-1-4.9-.2-9.5-.2-14.5,1.5-4.8,2.1-9.3,4.7-13.3,2.5-3.9,5.7-6.8,10.2-8.7,2.7-1.2,5.2-.4,8.1-.4h0v.2h0Z"/>
  <path id="svg_23" class="st3" d="M504,641.9c8.2,2.4,11.3,8.9,14,15.3,2.9,6.9,3.3,14.5,1.8,21.9-1.2,6-4.8,9.8-10.5,10.4-5.3.6-9.6-1.8-12.7-6-4.9-6.7-6.4-14.7-8.1-22.9-.8-1.8-.4-3.2-.2-5,1.6-5.3,1.9-10.7,7.7-13.4,2.8-1,5.3-.3,8.1-.2h0Z"/>
  <path id="svg_24" class="st3" d="M331.9,641.9c4.9,0,8.1,2.2,11.1,5.3,7.3,7.4,10.4,24.8,6.7,34.4-3.3,8.6-14.5,10.4-21.4,2.6-4.1-4.7-7.1-11.1-8.2-16.5-2-8.1-1.1-10.1-1-12.3,1.5-5.3,2.7-10.3,7.8-13.3,1.7-.8,3.2-.4,5-.2Z"/>
  <path id="svg_25" class="st13" d="M364.2,665.6c2.1-7.6,3.6-14.9,9.4-20.3,1.5-1.4,3-2.5,5.3-3.1,2.4-1,4.6-.3,7.1-.3,5.3,2.4,8.3,6.2,9.3,11.8,1,3.1.3,5.8.2,9-.6,9.7-5,17.2-11.1,23.6-5.4,5.6-19.3,4.3-20.1-7.7-1-4.4-.3-8.5-.2-13h.1Z"/>
  <path id="svg_26" class="st3" d="M324.6,704.7c-.2,6.5-3.5,10.8-8.6,13.5-5.4,2.9-10,.6-14.5-2.9-8-6.2-13-20.6-10.1-29.8,1.2-3.8,3.1-6.4,7.3-7.5,2-1.1,4.2-.3,6.4-.2,11.2,3.3,18.1,18.9,19,20.6.9,1.7.7,4.4.6,6.2h0Z"/>
  <path id="svg_27" class="st3" d="M426.6,694.7c-2.3,8.5-5.3,16.1-12.2,21.4-5,3.9-11.4,4.1-16.3,1-5.4-3.5-6.4-9.3-5.5-14.4,1.3-8,4.1-15.4,11.2-21,7.4-5.9,19.3-5,22.5,7.1.8,2,.3,3.8.2,6h0Z"/>
  <path id="svg_28" class="st3" d="M492.6,707.7c-.9,5.4-3.8,8.6-8.7,10.4-2.8,1-5.3.3-8.2.2-7.7-2.3-10.9-8.3-14-14.4-1.2-2.4-1.6-5.3-2.4-8.4-1-2.8-.3-5.2-.2-8.1,1.6-4.7,4-8,8.9-9.4,1.7-.8,3.1-.4,4.8-.2,10.6,2.8,16,10.1,19.4,19.9,1.1,3.4.3,6.4.2,9.9h.2Z"/>
  <path id="svg_29" class="st3" d="M585.8,678.9c6.2,1.1,8.5,5.3,9.6,10.8.9,1.7.4,3.2.2,5-1.7,9.4-5.2,17.6-13.3,22.3-9.2,5.3-16.3,2-19.9-8.4-1.1-3.5-.3-6.6-.2-10.2,1.5-7.1,8.4-14.9,10.3-16.5,1.9-1.6,3.5-2.1,5.6-2.7,2.1-.6,5-.5,7.7-.4h0Z"/>
  <path id="svg_31" class="st13" d="M864.2,688.5c1.5-3.8,3.7-6.3,7.8-7.3,2-1,3.8-.4,6-.2,10.6,3.1,12.5,12.5,4.2,21-3.1,1.2-6,.5-9.3.4-4.8-.2-7.3-2.4-8.4-6.9-1-2.4-.3-4.6-.2-7.1h0Z"/>
  <path id="svg_32" class="st3" d="M727.2,687.6c1.9-2.4,2.8-5.1,5.7-6.4,2.3-1.1,4.5-.4,7-.3,5.6,2.2,8.6,6.3,8.6,11.5s-2.4,9-7.6,10.7c-2.1.9-3.9.3-6.1.2-4.6-.3-5.6-3.7-7.2-6.9-1-3-.4-5.8-.3-8.9h-.1Z"/>
  <path id="svg_33" class="st3" d="M232.9,688.6c.3-2.7,5.7-8.2,13.2-7.4,4.2.5,6.7,4,8.2,7.5,2.2,5.1-1.1,12.1-6.1,13.9-6.3,2.4-12.1-.2-14.9-7.1-1-2.4-.8-4.3-.5-7h.1Z"/>
  <path id="svg_34" class="st13" d="M830.6,695.8c-1.8,4.9-5.2,7-9.8,7.4-5.6.5-8.7-2.9-11.2-7.6-1.1-2.3-.5-4.5-.3-7,1.5-4,4.1-6,7.9-7.4,2.1-1,3.9-.4,6-.2,3.9,1,5.6,3.8,7.3,6.9,1,2.7.3,5.2.2,7.9h-.1Z"/>
  <path id="svg_36" class="st3" d="M790.6,696.1c-1.5,3.2-3.2,5.6-6.9,6-2.4.9-4.5.3-7,.2-5.3-.8-6.8-4.5-7.3-8.5-.7-5.4,1.7-9.6,6.7-11.9,4-1.8,7.7-.9,11,1.5,1.3.9,2.2,2.4,3.2,4,.9,2.9.3,5.6.2,8.7h0Z"/>
  <path id="svg_37" class="st13" d="M193.7,702.4c-5.3-2.2-8-6.3-7.3-10.8.9-6,5.1-10.3,10.1-10.4,5.9,0,10.6,3.4,11.8,9.1,1.1,5.2-1.2,9.1-7.6,11.9-2.4.9-4.6.3-7,.2h0Z"/>
  <path id="svg_38" class="st5" d="M769.3,482.5c4.2-2.7,9.4-2.2,14.1-.4,0,0,.9.9,1,1l1,1s.7.9,1.1,1c3.2,5.3,1.5,10.2-2,15-.7.8-1.9.9-2.9,1.8-.3.2-.5.3-.6.2-3.7,1.1-8.3.4-11.5-2-.7-1.3-1.5-2.8-3-4-1.3-4.9-.5-9.4,3-13.7h-.2,0Z"/>
  <path id="svg_39" class="st3" d="M671.1,676.3c.7-4.3,3.7-6.4,6.4-8.4,2.9-2.2,8.3.4,9.8,4.5,2.4,6.5.3,12.4-3.4,17.6-3.2,4.4-10.3,2-12.6-4.3-1-3.2-.3-6.1-.2-9.3h0Z"/>
  <path id="svg_40" class="st3" d="M657.1,665.9c5.6,2.2,8.7,6.4,8.8,11.3,0,4.6-1.8,9.4-6.9,11.8-2.2,1-4,.9-6-.6-7-5.2-7.7-16-1.1-22.2,1.7-1,3.2-.5,5.1-.3h.1Z"/>
  <path id="svg_41" class="st3" d="M636.8,703.4c-9.4-5.1-10.9-11.8-4.6-17.8,2.3-2.2,4.7-1.7,7-1.3,4.6.8,7,4.6,7.9,8.7.9,3.9.7,8-4.3,10.2-2,.8-3.8.3-6,.2h0Z"/>
  <path id="svg_42" class="st3" d="M706.6,698.9c-2,4.2-4.9,7-8.7,9.2-1.7.9-3.1.4-4.9.2-6.2-3-6.7-10.9-1.4-17,.9-1,1.8-1.9,3.5-2.2,1.7-.9,3.1-.4,4.8-.2,3.4.2,4.3,3,6.3,4.9,1,1.7.5,3.2.3,5.1h.1Z"/>
  <path class="st0" d="M281.2,548.1l-.3-.3c-1.3-12.6-10-23.2-19.5-31.2-17.1-10.5-32-14.5-51.6-5.9v.2c-2.6,1-4,1.8-5.9,3.7v.2c-1.4,2.2-4,2.5-4.3-.1-1.4-6.7-4.7-10.1-12.8-8.9-4.4,0-9.8,3.5-10.7,8.4-.3,37.1-.2,73.8-.2,110.5-1.4,13.7,20.1,17.3,25.4,6.2,5.5-5.9,2.4-23.2,3.4-31.4,1.7,3.7,9.3,5.8,13.7,6.3,38.1,7.7,67.7-19.3,62.7-57.6ZM245.8,574.5h0c-42.9,34.2-67.1-50.3-14.2-43.4,19.3,1.4,31.2,30.2,14.1,43.4Z"/>
</svg>